STARTFONT 2.3
FONT -FontForge-Source Sans Pro-Book-I-Normal-SansPro--9-90-72-72-P-39-ISO10646-1
SIZE 9 72 72  2
FONTBOUNDINGBOX 12 14 -2 -3
COMMENT "Generated by fontforge, http://fontforge.sourceforge.net"
COMMENT "Copyright 2010, 2012, 2014 Adobe Systems Incorporated (http://www.adobe.com/), with Reserved Font Name `Source'."
STARTPROPERTIES 42
FOUNDRY "FontForge"
FAMILY_NAME "Source Sans Pro"
WEIGHT_NAME "Book"
SLANT "I"
SETWIDTH_NAME "Normal"
ADD_STYLE_NAME "SansPro"
PIXEL_SIZE 9
POINT_SIZE 90
RESOLUTION_X 72
RESOLUTION_Y 72
SPACING "P"
AVERAGE_WIDTH 39
CHARSET_REGISTRY "ISO10646"
CHARSET_ENCODING "1"
FONTNAME_REGISTRY ""
CHARSET_COLLECTIONS "ISO8859-2 ISO8859-9 ISO8859-4 ISO10646-1"
BITS_PER_PIXEL 2
FONT_NAME "SourceSansPro-Italic"
FACE_NAME "Source Sans Pro Italic"
COPYRIGHT "Copyright 2010, 2012, 2014 Adobe Systems Incorporated (http://www.adobe.com/), with Reserved Font Name `Source'."
FONT_VERSION "1.076;PS 2.000;hotconv 1.0.86;makeotf.lib2.5.63406"
FONT_ASCENT 7
FONT_DESCENT 2
UNDERLINE_POSITION -1
UNDERLINE_THICKNESS 1
X_HEIGHT 3
CAP_HEIGHT 5
RAW_ASCENT 750
RAW_DESCENT 250
ITALIC_ANGLE 5056
NORM_SPACE 2
RELATIVE_WEIGHT 40
RELATIVE_SETWIDTH 50
SUPERSCRIPT_X 0
SUPERSCRIPT_Y 3
SUPERSCRIPT_SIZE 5
SUBSCRIPT_X 0
SUBSCRIPT_Y 0
SUBSCRIPT_SIZE 5
FIGURE_WIDTH 4
AVG_LOWERCASE_WIDTH 43
AVG_UPPERCASE_WIDTH 51
ENDPROPERTIES
CHARS 856
STARTCHAR space
ENCODING 32
SWIDTH 192 0
DWIDTH 2 0
BBX 1 1 0 0
BITMAP
00
ENDCHAR
STARTCHAR exclam
ENCODING 33
SWIDTH 282 0
DWIDTH 3 0
BBX 3 6 0 0
BITMAP
14
20
20
20
00
50
ENDCHAR
STARTCHAR quotedbl
ENCODING 34
SWIDTH 408 0
DWIDTH 4 0
BBX 3 2 1 4
BITMAP
88
94
ENDCHAR
STARTCHAR numbersign
ENCODING 35
SWIDTH 479 0
DWIDTH 4 0
BBX 5 6 0 0
BITMAP
0500
1500
7F40
BE00
5400
4400
ENDCHAR
STARTCHAR dollar
ENCODING 36
SWIDTH 480 0
DWIDTH 4 0
BBX 4 8 0 -1
BITMAP
05
1E
21
10
05
46
7D
20
ENDCHAR
STARTCHAR percent
ENCODING 37
SWIDTH 791 0
DWIDTH 7 0
BBX 7 6 0 0
BITMAP
2C10
5540
5974
7988
0488
10B0
ENDCHAR
STARTCHAR ampersand
ENCODING 38
SWIDTH 582 0
DWIDTH 5 0
BBX 5 6 0 0
BITMAP
0E00
1600
1800
5880
8640
7A40
ENDCHAR
STARTCHAR quotesingle
ENCODING 39
SWIDTH 242 0
DWIDTH 2 0
BBX 1 2 1 4
BITMAP
80
80
ENDCHAR
STARTCHAR parenleft
ENCODING 40
SWIDTH 291 0
DWIDTH 3 0
BBX 3 8 0 -2
BITMAP
08
14
20
50
50
40
50
10
ENDCHAR
STARTCHAR parenright
ENCODING 41
SWIDTH 293 0
DWIDTH 3 0
BBX 2 8 0 -2
BITMAP
10
20
20
20
20
20
40
40
ENDCHAR
STARTCHAR asterisk
ENCODING 42
SWIDTH 403 0
DWIDTH 4 0
BBX 3 3 1 3
BITMAP
50
74
50
ENDCHAR
STARTCHAR plus
ENCODING 43
SWIDTH 480 0
DWIDTH 4 0
BBX 4 5 0 0
BITMAP
04
08
BF
08
04
ENDCHAR
STARTCHAR comma
ENCODING 44
SWIDTH 242 0
DWIDTH 2 0
BBX 2 2 0 -1
BITMAP
90
80
ENDCHAR
STARTCHAR hyphen
ENCODING 45
SWIDTH 299 0
DWIDTH 3 0
BBX 3 1 0 2
BITMAP
B4
ENDCHAR
STARTCHAR period
ENCODING 46
SWIDTH 242 0
DWIDTH 2 0
BBX 1 1 0 0
BITMAP
80
ENDCHAR
STARTCHAR slash
ENCODING 47
SWIDTH 340 0
DWIDTH 3 0
BBX 5 8 -1 -2
BITMAP
0040
0100
0100
0400
0400
1000
1000
4000
ENDCHAR
STARTCHAR zero
ENCODING 48
SWIDTH 480 0
DWIDTH 4 0
BBX 4 6 0 0
BITMAP
1E
22
52
82
96
78
ENDCHAR
STARTCHAR one
ENCODING 49
SWIDTH 480 0
DWIDTH 4 0
BBX 4 6 0 0
BITMAP
09
2C
04
08
14
BD
ENDCHAR
STARTCHAR two
ENCODING 50
SWIDTH 480 0
DWIDTH 4 0
BBX 4 6 0 0
BITMAP
1E
12
02
04
60
FE
ENDCHAR
STARTCHAR three
ENCODING 51
SWIDTH 480 0
DWIDTH 4 0
BBX 4 6 0 0
BITMAP
1E
12
2D
06
46
78
ENDCHAR
STARTCHAR four
ENCODING 52
SWIDTH 480 0
DWIDTH 4 0
BBX 4 6 0 0
BITMAP
07
0A
26
55
FF
08
ENDCHAR
STARTCHAR five
ENCODING 53
SWIDTH 480 0
DWIDTH 4 0
BBX 5 6 0 0
BITMAP
2F40
2000
3D00
0200
4600
7800
ENDCHAR
STARTCHAR six
ENCODING 54
SWIDTH 480 0
DWIDTH 4 0
BBX 4 6 0 0
BITMAP
1F
21
6D
52
52
3D
ENDCHAR
STARTCHAR seven
ENCODING 55
SWIDTH 480 0
DWIDTH 4 0
BBX 4 6 1 0
BITMAP
FE
08
14
20
50
80
ENDCHAR
STARTCHAR eight
ENCODING 56
SWIDTH 480 0
DWIDTH 4 0
BBX 5 6 0 0
BITMAP
1E00
2240
3E00
9500
8200
7D00
ENDCHAR
STARTCHAR nine
ENCODING 57
SWIDTH 480 0
DWIDTH 4 0
BBX 4 6 0 0
BITMAP
2E
62
52
3E
45
78
ENDCHAR
STARTCHAR colon
ENCODING 58
SWIDTH 242 0
DWIDTH 2 0
BBX 2 4 0 0
BITMAP
20
00
00
80
ENDCHAR
STARTCHAR semicolon
ENCODING 59
SWIDTH 242 0
DWIDTH 2 0
BBX 2 5 0 -1
BITMAP
20
00
00
90
80
ENDCHAR
STARTCHAR less
ENCODING 60
SWIDTH 480 0
DWIDTH 4 0
BBX 4 4 0 1
BITMAP
06
64
19
01
ENDCHAR
STARTCHAR equal
ENCODING 61
SWIDTH 480 0
DWIDTH 4 0
BBX 4 3 0 1
BITMAP
BF
00
BF
ENDCHAR
STARTCHAR greater
ENCODING 62
SWIDTH 480 0
DWIDTH 4 0
BBX 4 4 0 1
BITMAP
60
06
19
40
ENDCHAR
STARTCHAR question
ENCODING 63
SWIDTH 409 0
DWIDTH 4 0
BBX 3 6 1 0
BITMAP
B4
48
14
60
40
80
ENDCHAR
STARTCHAR at
ENCODING 64
SWIDTH 814 0
DWIDTH 7 0
BBX 7 8 0 -2
BITMAP
07E0
1818
2288
4984
8888
47B4
6000
1F40
ENDCHAR
STARTCHAR A
ENCODING 65
SWIDTH 510 0
DWIDTH 5 0
BBX 5 6 -1 0
BITMAP
0180
0180
0480
0FC0
2080
6080
ENDCHAR
STARTCHAR B
ENCODING 66
SWIDTH 583 0
DWIDTH 5 0
BBX 5 6 0 0
BITMAP
2F40
2080
3F40
5140
5180
BE00
ENDCHAR
STARTCHAR C
ENCODING 67
SWIDTH 550 0
DWIDTH 5 0
BBX 5 6 0 0
BITMAP
0B40
2440
5000
5000
6100
2E00
ENDCHAR
STARTCHAR D
ENCODING 68
SWIDTH 592 0
DWIDTH 5 0
BBX 5 6 0 0
BITMAP
2F40
2180
2080
5080
5280
BE00
ENDCHAR
STARTCHAR E
ENCODING 69
SWIDTH 503 0
DWIDTH 5 0
BBX 5 6 0 0
BITMAP
2F80
2000
3E00
5000
5000
BE00
ENDCHAR
STARTCHAR F
ENCODING 70
SWIDTH 473 0
DWIDTH 4 0
BBX 5 6 0 0
BITMAP
2F80
2000
3E00
5000
5000
8000
ENDCHAR
STARTCHAR G
ENCODING 71
SWIDTH 588 0
DWIDTH 5 0
BBX 5 6 0 0
BITMAP
0B80
2440
5000
5380
6080
2F40
ENDCHAR
STARTCHAR H
ENCODING 72
SWIDTH 622 0
DWIDTH 6 0
BBX 6 6 0 0
BITMAP
2050
2090
3FC0
5080
5080
8140
ENDCHAR
STARTCHAR I
ENCODING 73
SWIDTH 252 0
DWIDTH 2 0
BBX 2 6 0 0
BITMAP
20
20
20
60
50
80
ENDCHAR
STARTCHAR J
ENCODING 74
SWIDTH 456 0
DWIDTH 4 0
BBX 4 6 0 0
BITMAP
02
02
02
05
49
78
ENDCHAR
STARTCHAR K
ENCODING 75
SWIDTH 559 0
DWIDTH 5 0
BBX 5 6 0 0
BITMAP
2080
2200
2900
6600
5200
8140
ENDCHAR
STARTCHAR L
ENCODING 76
SWIDTH 462 0
DWIDTH 4 0
BBX 4 6 0 0
BITMAP
20
20
20
50
50
BE
ENDCHAR
STARTCHAR M
ENCODING 77
SWIDTH 705 0
DWIDTH 6 0
BBX 7 6 0 0
BITMAP
2424
2860
28A0
5960
5550
8050
ENDCHAR
STARTCHAR N
ENCODING 78
SWIDTH 619 0
DWIDTH 6 0
BBX 6 6 0 0
BITMAP
2450
2850
2880
5580
5280
8240
ENDCHAR
STARTCHAR O
ENCODING 79
SWIDTH 633 0
DWIDTH 6 0
BBX 6 6 0 0
BITMAP
0B80
2490
5050
5050
6180
2E00
ENDCHAR
STARTCHAR P
ENCODING 80
SWIDTH 550 0
DWIDTH 5 0
BBX 5 6 0 0
BITMAP
2F80
2080
2180
7E40
5000
8000
ENDCHAR
STARTCHAR Q
ENCODING 81
SWIDTH 633 0
DWIDTH 6 0
BBX 6 8 0 -2
BITMAP
0B80
2490
5050
5050
6180
2F00
0900
0780
ENDCHAR
STARTCHAR R
ENCODING 82
SWIDTH 555 0
DWIDTH 5 0
BBX 5 6 0 0
BITMAP
2F80
2080
2180
7E00
5600
8200
ENDCHAR
STARTCHAR S
ENCODING 83
SWIDTH 506 0
DWIDTH 5 0
BBX 5 6 0 0
BITMAP
1E00
2140
2800
0600
5200
3D00
ENDCHAR
STARTCHAR T
ENCODING 84
SWIDTH 510 0
DWIDTH 5 0
BBX 4 6 1 0
BITMAP
FF
20
20
20
60
50
ENDCHAR
STARTCHAR U
ENCODING 85
SWIDTH 616 0
DWIDTH 6 0
BBX 6 6 0 0
BITMAP
2050
2050
2080
5080
6140
2E00
ENDCHAR
STARTCHAR V
ENCODING 86
SWIDTH 496 0
DWIDTH 4 0
BBX 5 6 0 0
BITMAP
5080
2140
2200
2500
2800
2400
ENDCHAR
STARTCHAR W
ENCODING 87
SWIDTH 756 0
DWIDTH 7 0
BBX 6 6 1 0
BITMAP
8520
8A20
9650
A280
9240
C300
ENDCHAR
STARTCHAR X
ENCODING 88
SWIDTH 494 0
DWIDTH 4 0
BBX 5 6 0 0
BITMAP
2180
2600
1C00
1800
5500
8200
ENDCHAR
STARTCHAR Y
ENCODING 89
SWIDTH 461 0
DWIDTH 4 0
BBX 4 6 1 0
BITMAP
86
88
A4
60
50
80
ENDCHAR
STARTCHAR Z
ENCODING 90
SWIDTH 512 0
DWIDTH 5 0
BBX 5 6 0 0
BITMAP
2F80
0240
0500
1400
5000
FF00
ENDCHAR
STARTCHAR bracketleft
ENCODING 91
SWIDTH 292 0
DWIDTH 3 0
BBX 3 9 0 -2
BITMAP
1C
20
20
20
10
50
40
40
E0
ENDCHAR
STARTCHAR backslash
ENCODING 92
SWIDTH 340 0
DWIDTH 3 0
BBX 2 8 1 -2
BITMAP
40
40
40
40
40
40
40
50
ENDCHAR
STARTCHAR bracketright
ENCODING 93
SWIDTH 293 0
DWIDTH 3 0
BBX 4 9 -1 -2
BITMAP
0E
01
05
04
08
08
08
14
74
ENDCHAR
STARTCHAR asciicircum
ENCODING 94
SWIDTH 479 0
DWIDTH 4 0
BBX 3 4 1 2
BITMAP
20
54
88
44
ENDCHAR
STARTCHAR underscore
ENCODING 95
SWIDTH 483 0
DWIDTH 4 0
BBX 5 1 -1 -1
BITMAP
7FC0
ENDCHAR
STARTCHAR grave
ENCODING 96
SWIDTH 517 0
DWIDTH 5 0
BBX 2 2 2 5
BITMAP
80
10
ENDCHAR
STARTCHAR a
ENCODING 97
SWIDTH 537 0
DWIDTH 5 0
BBX 5 4 0 0
BITMAP
2E40
6240
9700
7A00
ENDCHAR
STARTCHAR b
ENCODING 98
SWIDTH 536 0
DWIDTH 5 0
BBX 5 6 0 0
BITMAP
2000
2000
3B40
6140
5240
AD00
ENDCHAR
STARTCHAR c
ENCODING 99
SWIDTH 435 0
DWIDTH 4 0
BBX 4 4 0 0
BITMAP
2E
61
90
78
ENDCHAR
STARTCHAR d
ENCODING 100
SWIDTH 535 0
DWIDTH 5 0
BBX 5 6 0 0
BITMAP
0080
0080
2E40
6240
9600
7A00
ENDCHAR
STARTCHAR e
ENCODING 101
SWIDTH 481 0
DWIDTH 4 0
BBX 4 4 0 0
BITMAP
2E
7F
90
7C
ENDCHAR
STARTCHAR f
ENCODING 102
SWIDTH 282 0
DWIDTH 3 0
BBX 4 6 0 0
BITMAP
1D
24
78
20
50
50
ENDCHAR
STARTCHAR g
ENCODING 103
SWIDTH 531 0
DWIDTH 5 0
BBX 5 6 0 -2
BITMAP
2E40
9700
7B00
0200
4900
7800
ENDCHAR
STARTCHAR h
ENCODING 104
SWIDTH 519 0
DWIDTH 5 0
BBX 5 6 0 0
BITMAP
2000
2000
3F00
6240
5200
8200
ENDCHAR
STARTCHAR i
ENCODING 105
SWIDTH 237 0
DWIDTH 2 0
BBX 2 6 0 0
BITMAP
20
00
20
60
50
80
ENDCHAR
STARTCHAR j
ENCODING 106
SWIDTH 238 0
DWIDTH 2 0
BBX 3 8 -1 -2
BITMAP
04
00
08
18
14
20
20
D0
ENDCHAR
STARTCHAR k
ENCODING 107
SWIDTH 476 0
DWIDTH 4 0
BBX 4 6 0 0
BITMAP
20
20
22
68
68
82
ENDCHAR
STARTCHAR l
ENCODING 108
SWIDTH 248 0
DWIDTH 2 0
BBX 2 6 0 0
BITMAP
20
20
20
50
50
90
ENDCHAR
STARTCHAR m
ENCODING 109
SWIDTH 799 0
DWIDTH 7 0
BBX 7 4 0 0
BITMAP
2BB8
6248
5214
8214
ENDCHAR
STARTCHAR n
ENCODING 110
SWIDTH 525 0
DWIDTH 5 0
BBX 5 4 0 0
BITMAP
2B00
6240
5200
8200
ENDCHAR
STARTCHAR o
ENCODING 111
SWIDTH 515 0
DWIDTH 5 0
BBX 5 4 0 0
BITMAP
2E00
5240
9200
7D00
ENDCHAR
STARTCHAR p
ENCODING 112
SWIDTH 535 0
DWIDTH 5 0
BBX 5 6 0 -2
BITMAP
2B40
2140
5240
AD00
8000
8000
ENDCHAR
STARTCHAR q
ENCODING 113
SWIDTH 537 0
DWIDTH 5 0
BBX 5 6 0 -2
BITMAP
2E40
6240
9700
7A00
0200
0500
ENDCHAR
STARTCHAR r
ENCODING 114
SWIDTH 342 0
DWIDTH 3 0
BBX 4 4 0 0
BITMAP
29
60
50
80
ENDCHAR
STARTCHAR s
ENCODING 115
SWIDTH 402 0
DWIDTH 4 0
BBX 3 4 0 0
BITMAP
3C
78
48
78
ENDCHAR
STARTCHAR t
ENCODING 116
SWIDTH 325 0
DWIDTH 3 0
BBX 3 5 0 0
BITMAP
20
7C
20
50
74
ENDCHAR
STARTCHAR u
ENCODING 117
SWIDTH 528 0
DWIDTH 5 0
BBX 5 4 0 0
BITMAP
2140
5200
5700
7A00
ENDCHAR
STARTCHAR v
ENCODING 118
SWIDTH 448 0
DWIDTH 4 0
BBX 4 4 0 0
BITMAP
52
55
28
24
ENDCHAR
STARTCHAR w
ENCODING 119
SWIDTH 707 0
DWIDTH 6 0
BBX 6 4 0 0
BITMAP
5210
5620
6640
3180
ENDCHAR
STARTCHAR x
ENCODING 120
SWIDTH 429 0
DWIDTH 4 0
BBX 4 4 0 0
BITMAP
22
28
28
88
ENDCHAR
STARTCHAR y
ENCODING 121
SWIDTH 448 0
DWIDTH 4 0
BBX 5 6 -1 -2
BITMAP
1480
1440
0A00
0900
0800
7000
ENDCHAR
STARTCHAR z
ENCODING 122
SWIDTH 410 0
DWIDTH 4 0
BBX 4 4 0 0
BITMAP
3E
04
50
FC
ENDCHAR
STARTCHAR braceleft
ENCODING 123
SWIDTH 290 0
DWIDTH 3 0
BBX 3 9 0 -2
BITMAP
1C
14
20
20
90
10
50
40
60
ENDCHAR
STARTCHAR bar
ENCODING 124
SWIDTH 231 0
DWIDTH 2 0
BBX 1 9 1 -2
BITMAP
40
40
40
40
40
40
40
40
40
ENDCHAR
STARTCHAR braceright
ENCODING 125
SWIDTH 293 0
DWIDTH 3 0
BBX 4 9 -1 -2
BITMAP
0C
05
04
08
09
08
14
24
60
ENDCHAR
STARTCHAR asciitilde
ENCODING 126
SWIDTH 480 0
DWIDTH 4 0
BBX 4 2 0 2
BITMAP
75
4A
ENDCHAR
STARTCHAR uni00A0
ENCODING 160
SWIDTH 192 0
DWIDTH 2 0
BBX 1 1 0 0
BITMAP
00
ENDCHAR
STARTCHAR exclamdown
ENCODING 161
SWIDTH 282 0
DWIDTH 3 0
BBX 2 6 0 -2
BITMAP
20
10
10
50
80
40
ENDCHAR
STARTCHAR cent
ENCODING 162
SWIDTH 480 0
DWIDTH 4 0
BBX 4 6 0 0
BITMAP
01
1A
24
54
2D
04
ENDCHAR
STARTCHAR sterling
ENCODING 163
SWIDTH 480 0
DWIDTH 4 0
BBX 4 6 0 0
BITMAP
0B
25
20
7D
10
BE
ENDCHAR
STARTCHAR currency
ENCODING 164
SWIDTH 480 0
DWIDTH 4 0
BBX 5 4 0 1
BITMAP
2E40
6200
5200
BE00
ENDCHAR
STARTCHAR yen
ENCODING 165
SWIDTH 480 0
DWIDTH 4 0
BBX 5 6 0 0
BITMAP
2140
2200
1800
BF00
BE00
1400
ENDCHAR
STARTCHAR brokenbar
ENCODING 166
SWIDTH 231 0
DWIDTH 2 0
BBX 1 9 1 -2
BITMAP
40
40
40
40
00
40
40
40
40
ENDCHAR
STARTCHAR section
ENCODING 167
SWIDTH 477 0
DWIDTH 4 0
BBX 4 7 0 -1
BITMAP
1E
21
54
52
1A
48
78
ENDCHAR
STARTCHAR dieresis
ENCODING 168
SWIDTH 517 0
DWIDTH 5 0
BBX 3 1 2 5
BITMAP
94
ENDCHAR
STARTCHAR copyright
ENCODING 169
SWIDTH 665 0
DWIDTH 6 0
BBX 6 6 0 0
BITMAP
0B80
2B60
5810
5410
5F90
2F40
ENDCHAR
STARTCHAR ordfeminine
ENCODING 170
SWIDTH 354 0
DWIDTH 3 0
BBX 3 3 1 3
BITMAP
A0
94
D0
ENDCHAR
STARTCHAR guillemotleft
ENCODING 171
SWIDTH 411 0
DWIDTH 4 0
BBX 4 3 0 1
BITMAP
15
94
14
ENDCHAR
STARTCHAR logicalnot
ENCODING 172
SWIDTH 480 0
DWIDTH 4 0
BBX 4 3 0 0
BITMAP
BF
01
01
ENDCHAR
STARTCHAR uni00AD
ENCODING 173
SWIDTH 299 0
DWIDTH 3 0
BBX 3 1 0 2
BITMAP
B4
ENDCHAR
STARTCHAR registered
ENCODING 174
SWIDTH 406 0
DWIDTH 4 0
BBX 4 3 0 3
BITMAP
3E
6E
3D
ENDCHAR
STARTCHAR macron
ENCODING 175
SWIDTH 517 0
DWIDTH 5 0
BBX 3 1 2 5
BITMAP
F4
ENDCHAR
STARTCHAR degree
ENCODING 176
SWIDTH 313 0
DWIDTH 3 0
BBX 2 2 1 4
BITMAP
A0
E0
ENDCHAR
STARTCHAR plusminus
ENCODING 177
SWIDTH 480 0
DWIDTH 4 0
BBX 4 6 0 0
BITMAP
04
08
BF
08
04
BF
ENDCHAR
STARTCHAR two.sups
ENCODING 178
SWIDTH 353 0
DWIDTH 3 0
BBX 3 4 1 4
BITMAP
74
54
00
B0
ENDCHAR
STARTCHAR three.sups
ENCODING 179
SWIDTH 351 0
DWIDTH 3 0
BBX 3 4 1 4
BITMAP
74
14
70
B0
ENDCHAR
STARTCHAR acute
ENCODING 180
SWIDTH 517 0
DWIDTH 5 0
BBX 2 2 2 5
BITMAP
20
50
ENDCHAR
STARTCHAR uni00B5
ENCODING 181
SWIDTH 526 0
DWIDTH 5 0
BBX 5 7 0 -2
BITMAP
2140
2240
5200
9600
B600
8000
4000
ENDCHAR
STARTCHAR paragraph
ENCODING 182
SWIDTH 535 0
DWIDTH 5 0
BBX 5 7 0 -1
BITMAP
1E80
3E40
7E40
2A00
0200
0200
0100
ENDCHAR
STARTCHAR periodcentered
ENCODING 183
SWIDTH 242 0
DWIDTH 2 0
BBX 2 1 0 3
BITMAP
60
ENDCHAR
STARTCHAR cedilla
ENCODING 184
SWIDTH 517 0
DWIDTH 5 0
BBX 3 2 0 -2
BITMAP
10
74
ENDCHAR
STARTCHAR one.sups
ENCODING 185
SWIDTH 356 0
DWIDTH 3 0
BBX 2 4 1 4
BITMAP
60
20
20
10
ENDCHAR
STARTCHAR ordmasculine
ENCODING 186
SWIDTH 348 0
DWIDTH 3 0
BBX 3 3 0 3
BITMAP
2C
58
78
ENDCHAR
STARTCHAR guillemotright
ENCODING 187
SWIDTH 411 0
DWIDTH 4 0
BBX 4 3 0 1
BITMAP
14
25
54
ENDCHAR
STARTCHAR onequarter
ENCODING 188
SWIDTH 748 0
DWIDTH 7 0
BBX 6 6 1 0
BITMAP
9040
5100
4480
4580
17D0
4040
ENDCHAR
STARTCHAR onehalf
ENCODING 189
SWIDTH 772 0
DWIDTH 7 0
BBX 6 6 1 0
BITMAP
9040
5100
45D0
5550
1000
42C0
ENDCHAR
STARTCHAR threequarters
ENCODING 190
SWIDTH 764 0
DWIDTH 7 0
BBX 7 6 0 0
BITMAP
2810
0840
6864
3960
04F4
1410
ENDCHAR
STARTCHAR questiondown
ENCODING 191
SWIDTH 409 0
DWIDTH 4 0
BBX 3 6 0 -2
BITMAP
08
14
20
80
84
B4
ENDCHAR
STARTCHAR Agrave
ENCODING 192
SWIDTH 510 0
DWIDTH 5 0
BBX 5 8 -1 0
BITMAP
0200
0040
0180
0180
0480
0FC0
2080
6080
ENDCHAR
STARTCHAR Aacute
ENCODING 193
SWIDTH 510 0
DWIDTH 5 0
BBX 5 8 -1 0
BITMAP
0040
0000
0180
0180
0480
0FC0
2080
6080
ENDCHAR
STARTCHAR Acircumflex
ENCODING 194
SWIDTH 510 0
DWIDTH 5 0
BBX 6 8 -1 0
BITMAP
01C0
0250
0180
0180
0480
0FC0
2080
6080
ENDCHAR
STARTCHAR Atilde
ENCODING 195
SWIDTH 510 0
DWIDTH 5 0
BBX 6 8 -1 0
BITMAP
0360
0590
0180
0180
0480
0FC0
2080
6080
ENDCHAR
STARTCHAR Adieresis
ENCODING 196
SWIDTH 510 0
DWIDTH 5 0
BBX 6 7 -1 0
BITMAP
0250
0180
0180
0480
0FC0
2080
6080
ENDCHAR
STARTCHAR Aring
ENCODING 197
SWIDTH 510 0
DWIDTH 5 0
BBX 5 8 -1 0
BITMAP
01C0
01C0
0180
0180
0480
0FC0
2080
6080
ENDCHAR
STARTCHAR AE
ENCODING 198
SWIDTH 803 0
DWIDTH 7 0
BBX 8 6 0 0
BITMAP
02FD
0680
09F4
2540
7F00
92F4
ENDCHAR
STARTCHAR Ccedilla
ENCODING 199
SWIDTH 550 0
DWIDTH 5 0
BBX 5 8 0 -2
BITMAP
0B40
2440
5000
5000
6100
2E00
0400
2800
ENDCHAR
STARTCHAR Egrave
ENCODING 200
SWIDTH 503 0
DWIDTH 5 0
BBX 5 8 0 0
BITMAP
0400
0200
2F80
2000
3E00
5000
5000
BE00
ENDCHAR
STARTCHAR Eacute
ENCODING 201
SWIDTH 503 0
DWIDTH 5 0
BBX 5 8 0 0
BITMAP
0140
0000
2F80
2000
3E00
5000
5000
BE00
ENDCHAR
STARTCHAR Ecircumflex
ENCODING 202
SWIDTH 503 0
DWIDTH 5 0
BBX 5 8 0 0
BITMAP
0700
0940
2F80
2000
3E00
5000
5000
BE00
ENDCHAR
STARTCHAR Edieresis
ENCODING 203
SWIDTH 503 0
DWIDTH 5 0
BBX 5 7 0 0
BITMAP
0840
2F80
2000
3E00
5000
5000
BE00
ENDCHAR
STARTCHAR Igrave
ENCODING 204
SWIDTH 252 0
DWIDTH 2 0
BBX 3 8 0 0
BITMAP
20
14
20
20
20
60
50
80
ENDCHAR
STARTCHAR Iacute
ENCODING 205
SWIDTH 252 0
DWIDTH 2 0
BBX 3 8 0 0
BITMAP
14
00
20
20
20
60
50
80
ENDCHAR
STARTCHAR Icircumflex
ENCODING 206
SWIDTH 252 0
DWIDTH 2 0
BBX 3 8 0 0
BITMAP
28
54
20
20
20
60
50
80
ENDCHAR
STARTCHAR Idieresis
ENCODING 207
SWIDTH 252 0
DWIDTH 2 0
BBX 3 7 0 0
BITMAP
54
20
20
20
60
50
80
ENDCHAR
STARTCHAR Eth
ENCODING 208
SWIDTH 610 0
DWIDTH 5 0
BBX 6 6 0 0
BITMAP
1F40
2080
BC50
2080
5180
7E00
ENDCHAR
STARTCHAR Ntilde
ENCODING 209
SWIDTH 619 0
DWIDTH 6 0
BBX 6 8 0 0
BITMAP
0A50
05C0
2450
2850
2880
5580
5280
8240
ENDCHAR
STARTCHAR Ograve
ENCODING 210
SWIDTH 633 0
DWIDTH 6 0
BBX 6 8 0 0
BITMAP
0100
0200
0B80
2490
5050
5050
6180
2E00
ENDCHAR
STARTCHAR Oacute
ENCODING 211
SWIDTH 633 0
DWIDTH 6 0
BBX 6 8 0 0
BITMAP
0140
0000
0B80
2490
5050
5050
6180
2E00
ENDCHAR
STARTCHAR Ocircumflex
ENCODING 212
SWIDTH 633 0
DWIDTH 6 0
BBX 6 8 0 0
BITMAP
0340
0580
0B80
2490
5050
5050
6180
2E00
ENDCHAR
STARTCHAR Otilde
ENCODING 213
SWIDTH 633 0
DWIDTH 6 0
BBX 6 8 0 0
BITMAP
0650
05C0
0B80
2490
5050
5050
6180
2E00
ENDCHAR
STARTCHAR Odieresis
ENCODING 214
SWIDTH 633 0
DWIDTH 6 0
BBX 6 7 0 0
BITMAP
0580
0B80
2490
5050
5050
6180
2E00
ENDCHAR
STARTCHAR multiply
ENCODING 215
SWIDTH 480 0
DWIDTH 4 0
BBX 4 4 0 1
BITMAP
52
18
25
01
ENDCHAR
STARTCHAR Oslash
ENCODING 216
SWIDTH 633 0
DWIDTH 6 0
BBX 6 6 0 0
BITMAP
1BA0
2490
56D0
7950
7180
AE40
ENDCHAR
STARTCHAR Ugrave
ENCODING 217
SWIDTH 616 0
DWIDTH 6 0
BBX 6 8 0 0
BITMAP
0500
0200
2050
2050
2080
5080
6140
2E00
ENDCHAR
STARTCHAR Uacute
ENCODING 218
SWIDTH 616 0
DWIDTH 6 0
BBX 6 8 0 0
BITMAP
0140
0000
2050
2050
2080
5080
6140
2E00
ENDCHAR
STARTCHAR Ucircumflex
ENCODING 219
SWIDTH 616 0
DWIDTH 6 0
BBX 6 8 0 0
BITMAP
0340
0540
2050
2050
2080
5080
6140
2E00
ENDCHAR
STARTCHAR Udieresis
ENCODING 220
SWIDTH 616 0
DWIDTH 6 0
BBX 6 7 0 0
BITMAP
0480
2050
2050
2080
5080
6140
2E00
ENDCHAR
STARTCHAR Yacute
ENCODING 221
SWIDTH 461 0
DWIDTH 4 0
BBX 4 8 1 0
BITMAP
14
00
86
88
A4
60
50
80
ENDCHAR
STARTCHAR Thorn
ENCODING 222
SWIDTH 562 0
DWIDTH 5 0
BBX 5 6 0 0
BITMAP
2000
2F40
2080
6180
7E00
8000
ENDCHAR
STARTCHAR germandbls
ENCODING 223
SWIDTH 555 0
DWIDTH 5 0
BBX 5 6 0 0
BITMAP
1F40
2540
2500
6600
5140
8B40
ENDCHAR
STARTCHAR agrave
ENCODING 224
SWIDTH 537 0
DWIDTH 5 0
BBX 5 7 0 0
BITMAP
0800
0100
0000
2E40
6240
9700
7A00
ENDCHAR
STARTCHAR aacute
ENCODING 225
SWIDTH 537 0
DWIDTH 5 0
BBX 5 7 0 0
BITMAP
0200
0500
0000
2E40
6240
9700
7A00
ENDCHAR
STARTCHAR acircumflex
ENCODING 226
SWIDTH 537 0
DWIDTH 5 0
BBX 5 7 0 0
BITMAP
0A00
1940
0000
2E40
6240
9700
7A00
ENDCHAR
STARTCHAR atilde
ENCODING 227
SWIDTH 537 0
DWIDTH 5 0
BBX 5 7 0 0
BITMAP
1D80
1240
0000
2E40
6240
9700
7A00
ENDCHAR
STARTCHAR adieresis
ENCODING 228
SWIDTH 537 0
DWIDTH 5 0
BBX 5 6 0 0
BITMAP
0540
0000
2E40
6240
9700
7A00
ENDCHAR
STARTCHAR aring
ENCODING 229
SWIDTH 537 0
DWIDTH 5 0
BBX 5 7 0 0
BITMAP
0B00
0A00
0000
2E40
6240
9700
7A00
ENDCHAR
STARTCHAR ae
ENCODING 230
SWIDTH 761 0
DWIDTH 7 0
BBX 7 4 0 0
BITMAP
2EB4
13F4
6E10
BAE0
ENDCHAR
STARTCHAR ccedilla
ENCODING 231
SWIDTH 435 0
DWIDTH 4 0
BBX 4 6 0 -2
BITMAP
2E
61
90
78
10
70
ENDCHAR
STARTCHAR egrave
ENCODING 232
SWIDTH 481 0
DWIDTH 4 0
BBX 4 7 0 0
BITMAP
08
05
00
2E
7F
90
7C
ENDCHAR
STARTCHAR eacute
ENCODING 233
SWIDTH 481 0
DWIDTH 4 0
BBX 4 7 0 0
BITMAP
02
05
00
2E
7F
90
7C
ENDCHAR
STARTCHAR ecircumflex
ENCODING 234
SWIDTH 481 0
DWIDTH 4 0
BBX 4 7 0 0
BITMAP
0A
16
00
2E
7F
90
7C
ENDCHAR
STARTCHAR edieresis
ENCODING 235
SWIDTH 481 0
DWIDTH 4 0
BBX 4 6 0 0
BITMAP
16
00
2E
7F
90
7C
ENDCHAR
STARTCHAR igrave
ENCODING 236
SWIDTH 237 0
DWIDTH 2 0
BBX 3 7 0 0
BITMAP
20
14
00
20
60
50
80
ENDCHAR
STARTCHAR iacute
ENCODING 237
SWIDTH 237 0
DWIDTH 2 0
BBX 3 7 0 0
BITMAP
08
20
00
20
60
50
80
ENDCHAR
STARTCHAR icircumflex
ENCODING 238
SWIDTH 237 0
DWIDTH 2 0
BBX 3 7 0 0
BITMAP
28
58
00
20
60
50
80
ENDCHAR
STARTCHAR idieresis
ENCODING 239
SWIDTH 237 0
DWIDTH 2 0
BBX 3 6 0 0
BITMAP
58
00
20
60
50
80
ENDCHAR
STARTCHAR eth
ENCODING 240
SWIDTH 524 0
DWIDTH 5 0
BBX 5 7 0 0
BITMAP
0040
0B40
0A00
1600
0200
6E00
7D00
ENDCHAR
STARTCHAR ntilde
ENCODING 241
SWIDTH 525 0
DWIDTH 5 0
BBX 5 7 0 0
BITMAP
0D80
1640
0000
2B00
6240
5200
8200
ENDCHAR
STARTCHAR ograve
ENCODING 242
SWIDTH 515 0
DWIDTH 5 0
BBX 5 7 0 0
BITMAP
0800
0100
0000
2E00
5240
9200
7D00
ENDCHAR
STARTCHAR oacute
ENCODING 243
SWIDTH 515 0
DWIDTH 5 0
BBX 5 7 0 0
BITMAP
0200
0500
0000
2E00
5240
9200
7D00
ENDCHAR
STARTCHAR ocircumflex
ENCODING 244
SWIDTH 515 0
DWIDTH 5 0
BBX 5 7 0 0
BITMAP
0A00
1940
0000
2E00
5240
9200
7D00
ENDCHAR
STARTCHAR otilde
ENCODING 245
SWIDTH 515 0
DWIDTH 5 0
BBX 5 7 0 0
BITMAP
0D80
1240
0000
2E00
5240
9200
7D00
ENDCHAR
STARTCHAR odieresis
ENCODING 246
SWIDTH 515 0
DWIDTH 5 0
BBX 5 6 0 0
BITMAP
0940
0000
2E00
5240
9200
7D00
ENDCHAR
STARTCHAR divide
ENCODING 247
SWIDTH 480 0
DWIDTH 4 0
BBX 4 4 0 1
BITMAP
08
00
BF
08
ENDCHAR
STARTCHAR oslash
ENCODING 248
SWIDTH 515 0
DWIDTH 5 0
BBX 5 4 0 0
BITMAP
2E40
AB00
AA00
BD00
ENDCHAR
STARTCHAR ugrave
ENCODING 249
SWIDTH 528 0
DWIDTH 5 0
BBX 5 7 0 0
BITMAP
0800
0500
0000
2140
5200
5700
7A00
ENDCHAR
STARTCHAR uacute
ENCODING 250
SWIDTH 528 0
DWIDTH 5 0
BBX 5 7 0 0
BITMAP
0200
0500
0000
2140
5200
5700
7A00
ENDCHAR
STARTCHAR ucircumflex
ENCODING 251
SWIDTH 528 0
DWIDTH 5 0
BBX 5 7 0 0
BITMAP
0A00
1540
0000
2140
5200
5700
7A00
ENDCHAR
STARTCHAR udieresis
ENCODING 252
SWIDTH 528 0
DWIDTH 5 0
BBX 5 6 0 0
BITMAP
0500
0000
2140
5200
5700
7A00
ENDCHAR
STARTCHAR yacute
ENCODING 253
SWIDTH 448 0
DWIDTH 4 0
BBX 5 9 -1 -2
BITMAP
0080
0200
0000
1480
1440
0A00
0900
0800
7000
ENDCHAR
STARTCHAR thorn
ENCODING 254
SWIDTH 535 0
DWIDTH 5 0
BBX 5 8 0 -2
BITMAP
2000
2000
3B40
2140
5240
AD00
8000
8000
ENDCHAR
STARTCHAR ydieresis
ENCODING 255
SWIDTH 448 0
DWIDTH 4 0
BBX 5 8 -1 -2
BITMAP
0880
0000
1480
1440
0A00
0900
0800
7000
ENDCHAR
STARTCHAR Amacron
ENCODING 256
SWIDTH 510 0
DWIDTH 5 0
BBX 6 7 -1 0
BITMAP
03D0
0180
0180
0480
0FC0
2080
6080
ENDCHAR
STARTCHAR amacron
ENCODING 257
SWIDTH 537 0
DWIDTH 5 0
BBX 5 6 0 0
BITMAP
0F40
0000
2E40
6240
9700
7A00
ENDCHAR
STARTCHAR Abreve
ENCODING 258
SWIDTH 510 0
DWIDTH 5 0
BBX 6 8 -1 0
BITMAP
0110
0280
0180
0180
0480
0FC0
2080
6080
ENDCHAR
STARTCHAR abreve
ENCODING 259
SWIDTH 537 0
DWIDTH 5 0
BBX 5 7 0 0
BITMAP
0540
0A00
0000
2E40
6240
9700
7A00
ENDCHAR
STARTCHAR Aogonek
ENCODING 260
SWIDTH 510 0
DWIDTH 5 0
BBX 5 8 -1 -2
BITMAP
0180
0280
0980
0880
2FC0
6080
0040
00C0
ENDCHAR
STARTCHAR aogonek
ENCODING 261
SWIDTH 537 0
DWIDTH 5 0
BBX 5 6 0 -2
BITMAP
2E40
6240
9700
7A00
0400
0900
ENDCHAR
STARTCHAR Cacute
ENCODING 262
SWIDTH 550 0
DWIDTH 5 0
BBX 5 8 0 0
BITMAP
0140
0000
0B40
2440
5000
5000
6100
2E00
ENDCHAR
STARTCHAR cacute
ENCODING 263
SWIDTH 435 0
DWIDTH 4 0
BBX 4 7 0 0
BITMAP
02
05
00
2E
61
90
78
ENDCHAR
STARTCHAR Ccircumflex
ENCODING 264
SWIDTH 550 0
DWIDTH 5 0
BBX 5 8 0 0
BITMAP
0280
0580
0B40
2440
5000
5000
6100
2E00
ENDCHAR
STARTCHAR ccircumflex
ENCODING 265
SWIDTH 435 0
DWIDTH 4 0
BBX 4 7 0 0
BITMAP
0A
16
00
2E
61
90
78
ENDCHAR
STARTCHAR Cdotaccent
ENCODING 266
SWIDTH 550 0
DWIDTH 5 0
BBX 5 7 0 0
BITMAP
0200
0B40
2440
5000
5000
6100
2E00
ENDCHAR
STARTCHAR cdotaccent
ENCODING 267
SWIDTH 435 0
DWIDTH 4 0
BBX 4 6 0 0
BITMAP
05
00
2E
61
90
78
ENDCHAR
STARTCHAR Ccaron
ENCODING 268
SWIDTH 550 0
DWIDTH 5 0
BBX 5 8 0 0
BITMAP
0580
0340
0B40
2440
5000
5000
6100
2E00
ENDCHAR
STARTCHAR ccaron
ENCODING 269
SWIDTH 435 0
DWIDTH 4 0
BBX 5 7 0 0
BITMAP
1640
0A00
0000
2E00
6100
9000
7800
ENDCHAR
STARTCHAR Dcaron
ENCODING 270
SWIDTH 592 0
DWIDTH 5 0
BBX 5 8 0 0
BITMAP
0540
0700
2F40
2180
2080
5080
5280
BE00
ENDCHAR
STARTCHAR dcaron
ENCODING 271
SWIDTH 542 0
DWIDTH 5 0
BBX 6 7 0 0
BITMAP
0010
0090
0080
2E40
6240
9600
7A00
ENDCHAR
STARTCHAR Dcroat
ENCODING 272
SWIDTH 610 0
DWIDTH 5 0
BBX 6 6 0 0
BITMAP
1F40
2080
BC50
2080
5180
7E00
ENDCHAR
STARTCHAR dcroat
ENCODING 273
SWIDTH 535 0
DWIDTH 5 0
BBX 6 6 0 0
BITMAP
0080
07D0
0080
2E40
9600
7A00
ENDCHAR
STARTCHAR Emacron
ENCODING 274
SWIDTH 503 0
DWIDTH 5 0
BBX 5 7 0 0
BITMAP
0F40
2F80
2000
3E00
5000
5000
BE00
ENDCHAR
STARTCHAR emacron
ENCODING 275
SWIDTH 481 0
DWIDTH 4 0
BBX 4 6 0 0
BITMAP
1F
00
2E
7F
90
7C
ENDCHAR
STARTCHAR Ebreve
ENCODING 276
SWIDTH 503 0
DWIDTH 5 0
BBX 5 8 0 0
BITMAP
0440
0700
2F80
2000
3E00
5000
5000
BE00
ENDCHAR
STARTCHAR ebreve
ENCODING 277
SWIDTH 481 0
DWIDTH 4 0
BBX 5 7 0 0
BITMAP
1540
0E00
0000
2E00
7F00
9000
7C00
ENDCHAR
STARTCHAR Edotaccent
ENCODING 278
SWIDTH 503 0
DWIDTH 5 0
BBX 5 7 0 0
BITMAP
0200
2F80
2000
3E00
5000
5000
BE00
ENDCHAR
STARTCHAR edotaccent
ENCODING 279
SWIDTH 481 0
DWIDTH 4 0
BBX 4 6 0 0
BITMAP
05
00
2E
7F
90
7C
ENDCHAR
STARTCHAR Eogonek
ENCODING 280
SWIDTH 503 0
DWIDTH 5 0
BBX 5 8 0 -2
BITMAP
2F80
2000
3E00
5000
5000
BE00
0400
0900
ENDCHAR
STARTCHAR eogonek
ENCODING 281
SWIDTH 481 0
DWIDTH 4 0
BBX 4 6 0 -2
BITMAP
2E
7F
90
78
04
18
ENDCHAR
STARTCHAR Ecaron
ENCODING 282
SWIDTH 503 0
DWIDTH 5 0
BBX 5 8 0 0
BITMAP
0540
0700
2F80
2000
3E00
5000
5000
BE00
ENDCHAR
STARTCHAR ecaron
ENCODING 283
SWIDTH 481 0
DWIDTH 4 0
BBX 4 7 0 0
BITMAP
16
0D
00
2E
7F
90
7C
ENDCHAR
STARTCHAR Gcircumflex
ENCODING 284
SWIDTH 588 0
DWIDTH 5 0
BBX 5 8 0 0
BITMAP
0280
0580
0B80
2440
5000
5380
6080
2F40
ENDCHAR
STARTCHAR gcircumflex
ENCODING 285
SWIDTH 531 0
DWIDTH 5 0
BBX 5 9 0 -2
BITMAP
0A00
1540
0000
2E40
9700
7B00
0200
4900
7800
ENDCHAR
STARTCHAR Gbreve
ENCODING 286
SWIDTH 588 0
DWIDTH 5 0
BBX 5 8 0 0
BITMAP
0540
0340
0B80
2440
5000
5380
6080
2F40
ENDCHAR
STARTCHAR gbreve
ENCODING 287
SWIDTH 531 0
DWIDTH 5 0
BBX 5 9 0 -2
BITMAP
1540
0A00
0000
2E40
9700
7B00
0200
4900
7800
ENDCHAR
STARTCHAR Gdotaccent
ENCODING 288
SWIDTH 588 0
DWIDTH 5 0
BBX 5 7 0 0
BITMAP
0200
0B80
2440
5000
5380
6080
2F40
ENDCHAR
STARTCHAR gdotaccent
ENCODING 289
SWIDTH 531 0
DWIDTH 5 0
BBX 5 8 0 -2
BITMAP
0500
0000
2E40
9700
7B00
0200
4900
7800
ENDCHAR
STARTCHAR uni0122
ENCODING 290
SWIDTH 588 0
DWIDTH 5 0
BBX 5 8 0 -2
BITMAP
0B80
2440
5000
5380
6080
2F40
0800
1800
ENDCHAR
STARTCHAR uni0123
ENCODING 291
SWIDTH 531 0
DWIDTH 5 0
BBX 5 9 0 -2
BITMAP
0700
0500
0000
2E40
9700
7B00
0200
4900
7800
ENDCHAR
STARTCHAR Hcircumflex
ENCODING 292
SWIDTH 622 0
DWIDTH 6 0
BBX 6 8 0 0
BITMAP
0340
0540
2050
2090
3FC0
5080
5080
8140
ENDCHAR
STARTCHAR hcircumflex
ENCODING 293
SWIDTH 519 0
DWIDTH 5 0
BBX 5 8 0 0
BITMAP
2800
1400
2000
2000
3F00
6240
5200
8200
ENDCHAR
STARTCHAR Hbar
ENCODING 294
SWIDTH 643 0
DWIDTH 6 0
BBX 6 6 0 0
BITMAP
2460
7FF0
2050
3FC0
6080
5080
ENDCHAR
STARTCHAR hbar
ENCODING 295
SWIDTH 519 0
DWIDTH 5 0
BBX 4 6 0 0
BITMAP
20
7E
20
3F
62
82
ENDCHAR
STARTCHAR Itilde
ENCODING 296
SWIDTH 252 0
DWIDTH 2 0
BBX 4 8 0 0
BITMAP
76
4D
20
20
20
60
50
80
ENDCHAR
STARTCHAR itilde
ENCODING 297
SWIDTH 237 0
DWIDTH 2 0
BBX 4 7 0 0
BITMAP
65
5C
00
20
60
50
80
ENDCHAR
STARTCHAR Imacron
ENCODING 298
SWIDTH 252 0
DWIDTH 2 0
BBX 3 7 0 0
BITMAP
7C
20
20
20
60
50
80
ENDCHAR
STARTCHAR imacron
ENCODING 299
SWIDTH 237 0
DWIDTH 2 0
BBX 3 6 0 0
BITMAP
7C
00
20
60
50
80
ENDCHAR
STARTCHAR uni012C
ENCODING 300
SWIDTH 252 0
DWIDTH 2 0
BBX 4 8 0 0
BITMAP
15
28
20
20
20
60
50
80
ENDCHAR
STARTCHAR uni012D
ENCODING 301
SWIDTH 237 0
DWIDTH 2 0
BBX 3 7 0 0
BITMAP
44
34
00
20
60
50
80
ENDCHAR
STARTCHAR Iogonek
ENCODING 302
SWIDTH 252 0
DWIDTH 2 0
BBX 3 8 -1 -2
BITMAP
08
08
08
18
14
20
10
70
ENDCHAR
STARTCHAR iogonek
ENCODING 303
SWIDTH 237 0
DWIDTH 2 0
BBX 3 8 -1 -2
BITMAP
04
00
08
18
14
20
10
60
ENDCHAR
STARTCHAR Idotaccent
ENCODING 304
SWIDTH 252 0
DWIDTH 2 0
BBX 3 7 0 0
BITMAP
14
20
20
20
60
50
80
ENDCHAR
STARTCHAR dotlessi
ENCODING 305
SWIDTH 237 0
DWIDTH 2 0
BBX 2 4 0 0
BITMAP
20
60
50
80
ENDCHAR
STARTCHAR Jcircumflex
ENCODING 308
SWIDTH 456 0
DWIDTH 4 0
BBX 5 8 0 0
BITMAP
0280
0540
0200
0200
0200
0500
4900
7800
ENDCHAR
STARTCHAR jcircumflex
ENCODING 309
SWIDTH 238 0
DWIDTH 2 0
BBX 4 9 -1 -2
BITMAP
0A
16
00
08
18
14
20
20
D0
ENDCHAR
STARTCHAR uni0136
ENCODING 310
SWIDTH 559 0
DWIDTH 5 0
BBX 5 8 0 -2
BITMAP
2080
2200
2900
6600
5200
8140
0800
2800
ENDCHAR
STARTCHAR uni0137
ENCODING 311
SWIDTH 476 0
DWIDTH 4 0
BBX 4 8 0 -2
BITMAP
20
20
22
68
68
82
24
74
ENDCHAR
STARTCHAR kgreenlandic
ENCODING 312
SWIDTH 476 0
DWIDTH 4 0
BBX 4 4 0 0
BITMAP
22
68
68
86
ENDCHAR
STARTCHAR Lacute
ENCODING 313
SWIDTH 462 0
DWIDTH 4 0
BBX 4 8 0 0
BITMAP
04
00
20
20
20
50
50
BE
ENDCHAR
STARTCHAR lacute
ENCODING 314
SWIDTH 248 0
DWIDTH 2 0
BBX 3 8 0 0
BITMAP
04
00
20
20
20
50
50
90
ENDCHAR
STARTCHAR uni013B
ENCODING 315
SWIDTH 462 0
DWIDTH 4 0
BBX 4 8 0 -2
BITMAP
20
20
20
50
50
BE
14
34
ENDCHAR
STARTCHAR uni013C
ENCODING 316
SWIDTH 248 0
DWIDTH 2 0
BBX 3 8 -1 -2
BITMAP
08
08
08
14
14
24
20
A0
ENDCHAR
STARTCHAR Lcaron
ENCODING 317
SWIDTH 462 0
DWIDTH 4 0
BBX 4 7 0 0
BITMAP
01
21
20
20
50
50
BE
ENDCHAR
STARTCHAR lcaron
ENCODING 318
SWIDTH 242 0
DWIDTH 2 0
BBX 3 7 0 0
BITMAP
04
28
20
20
50
50
90
ENDCHAR
STARTCHAR Ldot
ENCODING 319
SWIDTH 462 0
DWIDTH 4 0
BBX 4 6 0 0
BITMAP
20
20
22
50
50
BE
ENDCHAR
STARTCHAR ldot
ENCODING 320
SWIDTH 331 0
DWIDTH 3 0
BBX 3 6 0 0
BITMAP
20
20
28
50
50
90
ENDCHAR
STARTCHAR Lslash
ENCODING 321
SWIDTH 462 0
DWIDTH 4 0
BBX 4 6 0 0
BITMAP
20
20
29
B4
90
BE
ENDCHAR
STARTCHAR lslash
ENCODING 322
SWIDTH 252 0
DWIDTH 2 0
BBX 3 6 0 0
BITMAP
24
24
74
A0
50
50
ENDCHAR
STARTCHAR Nacute
ENCODING 323
SWIDTH 619 0
DWIDTH 6 0
BBX 6 8 0 0
BITMAP
0140
0000
2450
2850
2880
5580
5280
8240
ENDCHAR
STARTCHAR nacute
ENCODING 324
SWIDTH 525 0
DWIDTH 5 0
BBX 5 7 0 0
BITMAP
0140
0500
0000
2B00
6240
5200
8200
ENDCHAR
STARTCHAR uni0145
ENCODING 325
SWIDTH 619 0
DWIDTH 6 0
BBX 6 8 0 -2
BITMAP
2450
2850
2880
5580
5280
8240
0800
2800
ENDCHAR
STARTCHAR uni0146
ENCODING 326
SWIDTH 525 0
DWIDTH 5 0
BBX 5 6 0 -2
BITMAP
2B00
6240
5200
8200
1400
3400
ENDCHAR
STARTCHAR Ncaron
ENCODING 327
SWIDTH 619 0
DWIDTH 6 0
BBX 6 8 0 0
BITMAP
0580
0340
2450
2850
2880
5580
5280
8240
ENDCHAR
STARTCHAR ncaron
ENCODING 328
SWIDTH 525 0
DWIDTH 5 0
BBX 5 7 0 0
BITMAP
0940
0A00
0000
2B00
6240
5200
8200
ENDCHAR
STARTCHAR napostrophe
ENCODING 329
SWIDTH 739 0
DWIDTH 7 0
BBX 5 6 1 0
BITMAP
5000
4000
0AC0
1880
1480
2080
ENDCHAR
STARTCHAR Omacron
ENCODING 332
SWIDTH 633 0
DWIDTH 6 0
BBX 6 7 0 0
BITMAP
07C0
0B80
2490
5050
5050
6180
2E00
ENDCHAR
STARTCHAR omacron
ENCODING 333
SWIDTH 515 0
DWIDTH 5 0
BBX 5 6 0 0
BITMAP
0F40
0000
2E00
5240
9200
7D00
ENDCHAR
STARTCHAR uni014E
ENCODING 334
SWIDTH 633 0
DWIDTH 6 0
BBX 6 8 0 0
BITMAP
0440
0340
0B80
2490
5050
5050
6180
2E00
ENDCHAR
STARTCHAR uni014F
ENCODING 335
SWIDTH 515 0
DWIDTH 5 0
BBX 5 7 0 0
BITMAP
0540
0A00
0000
2E00
5240
9200
7D00
ENDCHAR
STARTCHAR Ohungarumlaut
ENCODING 336
SWIDTH 633 0
DWIDTH 6 0
BBX 6 8 0 0
BITMAP
0150
0140
0B80
2490
5050
5050
6180
2E00
ENDCHAR
STARTCHAR ohungarumlaut
ENCODING 337
SWIDTH 515 0
DWIDTH 5 0
BBX 5 7 0 0
BITMAP
0540
0540
0000
2E00
5240
9200
7D00
ENDCHAR
STARTCHAR OE
ENCODING 338
SWIDTH 816 0
DWIDTH 7 0
BBX 8 6 0 0
BITMAP
0BFE
2480
50F8
5140
6140
2FF8
ENDCHAR
STARTCHAR oe
ENCODING 339
SWIDTH 812 0
DWIDTH 7 0
BBX 7 4 0 0
BITMAP
2EB8
52FC
9240
7DF0
ENDCHAR
STARTCHAR Racute
ENCODING 340
SWIDTH 555 0
DWIDTH 5 0
BBX 5 8 0 0
BITMAP
0140
0000
2F80
2080
2180
7E00
5600
8200
ENDCHAR
STARTCHAR racute
ENCODING 341
SWIDTH 342 0
DWIDTH 3 0
BBX 4 7 0 0
BITMAP
05
08
00
29
60
50
80
ENDCHAR
STARTCHAR uni0156
ENCODING 342
SWIDTH 555 0
DWIDTH 5 0
BBX 5 8 0 -2
BITMAP
2F80
2080
2180
7E00
5600
8200
1800
2400
ENDCHAR
STARTCHAR uni0157
ENCODING 343
SWIDTH 342 0
DWIDTH 3 0
BBX 5 6 -1 -2
BITMAP
0A40
1800
1400
2000
2000
6000
ENDCHAR
STARTCHAR Rcaron
ENCODING 344
SWIDTH 555 0
DWIDTH 5 0
BBX 5 8 0 0
BITMAP
0540
0700
2F80
2080
2180
7E00
5600
8200
ENDCHAR
STARTCHAR rcaron
ENCODING 345
SWIDTH 342 0
DWIDTH 3 0
BBX 4 7 0 0
BITMAP
26
1C
00
29
60
50
80
ENDCHAR
STARTCHAR Sacute
ENCODING 346
SWIDTH 506 0
DWIDTH 5 0
BBX 5 8 0 0
BITMAP
0140
0000
1E00
2140
2800
0600
5200
3D00
ENDCHAR
STARTCHAR sacute
ENCODING 347
SWIDTH 402 0
DWIDTH 4 0
BBX 4 7 0 0
BITMAP
06
08
00
3C
78
48
78
ENDCHAR
STARTCHAR Scircumflex
ENCODING 348
SWIDTH 506 0
DWIDTH 5 0
BBX 5 8 0 0
BITMAP
0700
0940
1E00
2140
2800
0600
5200
3D00
ENDCHAR
STARTCHAR scircumflex
ENCODING 349
SWIDTH 402 0
DWIDTH 4 0
BBX 4 7 0 0
BITMAP
0D
26
00
3C
78
48
78
ENDCHAR
STARTCHAR uni015E
ENCODING 350
SWIDTH 506 0
DWIDTH 5 0
BBX 5 8 0 -2
BITMAP
1E00
2140
2800
0600
5200
3D00
1000
3400
ENDCHAR
STARTCHAR uni015F
ENCODING 351
SWIDTH 402 0
DWIDTH 4 0
BBX 3 6 0 -2
BITMAP
3C
78
48
78
10
A0
ENDCHAR
STARTCHAR Scaron
ENCODING 352
SWIDTH 506 0
DWIDTH 5 0
BBX 5 8 0 0
BITMAP
0540
0A00
1E00
2140
2800
0600
5200
3D00
ENDCHAR
STARTCHAR scaron
ENCODING 353
SWIDTH 402 0
DWIDTH 4 0
BBX 4 7 0 0
BITMAP
26
1C
00
3C
78
48
78
ENDCHAR
STARTCHAR uni0162
ENCODING 354
SWIDTH 510 0
DWIDTH 5 0
BBX 5 8 0 -2
BITMAP
3FC0
0800
0800
0800
1800
1400
1000
7000
ENDCHAR
STARTCHAR uni0163
ENCODING 355
SWIDTH 325 0
DWIDTH 3 0
BBX 3 7 0 -2
BITMAP
20
7C
20
50
74
10
A0
ENDCHAR
STARTCHAR Tcaron
ENCODING 356
SWIDTH 510 0
DWIDTH 5 0
BBX 4 8 1 0
BITMAP
15
28
FF
20
20
20
60
50
ENDCHAR
STARTCHAR tcaron
ENCODING 357
SWIDTH 325 0
DWIDTH 3 0
BBX 4 7 0 0
BITMAP
01
01
20
7C
20
50
74
ENDCHAR
STARTCHAR Utilde
ENCODING 360
SWIDTH 616 0
DWIDTH 6 0
BBX 6 8 0 0
BITMAP
0A50
0580
2050
2050
2080
5080
6140
2E00
ENDCHAR
STARTCHAR utilde
ENCODING 361
SWIDTH 528 0
DWIDTH 5 0
BBX 5 7 0 0
BITMAP
1D80
1340
0000
2140
5200
5700
7A00
ENDCHAR
STARTCHAR Umacron
ENCODING 362
SWIDTH 616 0
DWIDTH 6 0
BBX 6 7 0 0
BITMAP
0B80
2050
2050
2080
5080
6140
2E00
ENDCHAR
STARTCHAR umacron
ENCODING 363
SWIDTH 528 0
DWIDTH 5 0
BBX 5 6 0 0
BITMAP
0F00
0000
2140
5200
5700
7A00
ENDCHAR
STARTCHAR Ubreve
ENCODING 364
SWIDTH 616 0
DWIDTH 6 0
BBX 6 8 0 0
BITMAP
0440
0740
2050
2050
2080
5080
6140
2E00
ENDCHAR
STARTCHAR ubreve
ENCODING 365
SWIDTH 528 0
DWIDTH 5 0
BBX 5 7 0 0
BITMAP
1540
0A00
0000
2140
5200
5700
7A00
ENDCHAR
STARTCHAR Uring
ENCODING 366
SWIDTH 616 0
DWIDTH 6 0
BBX 6 8 0 0
BITMAP
0340
0340
2050
2050
2080
5080
6140
2E00
ENDCHAR
STARTCHAR uring
ENCODING 367
SWIDTH 528 0
DWIDTH 5 0
BBX 5 7 0 0
BITMAP
0A00
0A00
0000
2140
5200
5700
7A00
ENDCHAR
STARTCHAR Uhungarumlaut
ENCODING 368
SWIDTH 616 0
DWIDTH 6 0
BBX 6 8 0 0
BITMAP
0150
0140
2050
2050
2080
5080
6140
2E00
ENDCHAR
STARTCHAR uhungarumlaut
ENCODING 369
SWIDTH 528 0
DWIDTH 5 0
BBX 5 7 0 0
BITMAP
0540
0540
0000
2140
5200
5700
7A00
ENDCHAR
STARTCHAR Uogonek
ENCODING 370
SWIDTH 616 0
DWIDTH 6 0
BBX 6 8 0 -2
BITMAP
2050
2050
2080
5080
6180
2E00
1400
1800
ENDCHAR
STARTCHAR uogonek
ENCODING 371
SWIDTH 528 0
DWIDTH 5 0
BBX 5 6 0 -2
BITMAP
2140
5200
5700
7A00
0400
0900
ENDCHAR
STARTCHAR Wcircumflex
ENCODING 372
SWIDTH 756 0
DWIDTH 7 0
BBX 6 8 1 0
BITMAP
0700
0940
8520
8A20
9650
A280
9240
C300
ENDCHAR
STARTCHAR wcircumflex
ENCODING 373
SWIDTH 707 0
DWIDTH 6 0
BBX 6 7 0 0
BITMAP
0280
0580
0000
5210
5620
6640
3180
ENDCHAR
STARTCHAR Ycircumflex
ENCODING 374
SWIDTH 461 0
DWIDTH 4 0
BBX 4 8 1 0
BITMAP
28
54
86
88
A4
60
50
80
ENDCHAR
STARTCHAR ycircumflex
ENCODING 375
SWIDTH 448 0
DWIDTH 4 0
BBX 5 9 -1 -2
BITMAP
0340
0980
0000
1480
1440
0A00
0900
0800
7000
ENDCHAR
STARTCHAR Ydieresis
ENCODING 376
SWIDTH 461 0
DWIDTH 4 0
BBX 4 7 1 0
BITMAP
58
86
88
A4
60
50
80
ENDCHAR
STARTCHAR Zacute
ENCODING 377
SWIDTH 512 0
DWIDTH 5 0
BBX 5 8 0 0
BITMAP
0140
0000
2F80
0240
0500
1400
5000
FF00
ENDCHAR
STARTCHAR zacute
ENCODING 378
SWIDTH 410 0
DWIDTH 4 0
BBX 4 7 0 0
BITMAP
02
08
00
3E
04
50
FC
ENDCHAR
STARTCHAR Zdotaccent
ENCODING 379
SWIDTH 512 0
DWIDTH 5 0
BBX 5 7 0 0
BITMAP
0200
2F80
0240
0500
1400
5000
FF00
ENDCHAR
STARTCHAR zdotaccent
ENCODING 380
SWIDTH 410 0
DWIDTH 4 0
BBX 4 6 0 0
BITMAP
08
00
3E
04
50
FC
ENDCHAR
STARTCHAR Zcaron
ENCODING 381
SWIDTH 512 0
DWIDTH 5 0
BBX 5 8 0 0
BITMAP
0540
0A00
2F80
0240
0500
1400
5000
FF00
ENDCHAR
STARTCHAR zcaron
ENCODING 382
SWIDTH 410 0
DWIDTH 4 0
BBX 4 7 0 0
BITMAP
16
0D
00
3E
04
50
FC
ENDCHAR
STARTCHAR uni0180
ENCODING 384
SWIDTH 519 0
DWIDTH 5 0
BBX 5 6 0 0
BITMAP
7E00
2B00
2140
5140
5200
AD00
ENDCHAR
STARTCHAR uni018F
ENCODING 399
SWIDTH 636 0
DWIDTH 6 0
BBX 6 6 0 0
BITMAP
0B80
0450
7FD0
5090
6180
2E00
ENDCHAR
STARTCHAR uni0192
ENCODING 402
SWIDTH 480 0
DWIDTH 4 0
BBX 6 7 -1 -1
BITMAP
01E0
0240
0B80
0500
0800
0800
7400
ENDCHAR
STARTCHAR Ohorn
ENCODING 416
SWIDTH 633 0
DWIDTH 6 0
BBX 6 7 0 0
BITMAP
0020
0B90
2490
5050
5050
6180
2E00
ENDCHAR
STARTCHAR ohorn
ENCODING 417
SWIDTH 517 0
DWIDTH 5 0
BBX 5 5 0 0
BITMAP
0080
2F80
5240
9200
7D00
ENDCHAR
STARTCHAR Uhorn
ENCODING 431
SWIDTH 629 0
DWIDTH 6 0
BBX 7 7 0 0
BITMAP
0008
2060
2050
2080
5080
6180
2E00
ENDCHAR
STARTCHAR uhorn
ENCODING 432
SWIDTH 543 0
DWIDTH 5 0
BBX 6 6 0 0
BITMAP
0010
0040
2140
5200
5600
7A00
ENDCHAR
STARTCHAR uni01CD
ENCODING 461
SWIDTH 510 0
DWIDTH 5 0
BBX 6 8 -1 0
BITMAP
0150
0280
0180
0180
0480
0FC0
2080
6080
ENDCHAR
STARTCHAR uni01CE
ENCODING 462
SWIDTH 537 0
DWIDTH 5 0
BBX 5 7 0 0
BITMAP
0940
0A00
0000
2E40
6240
9700
7A00
ENDCHAR
STARTCHAR uni01CF
ENCODING 463
SWIDTH 252 0
DWIDTH 2 0
BBX 3 8 0 0
BITMAP
14
28
20
20
20
60
50
80
ENDCHAR
STARTCHAR uni01D0
ENCODING 464
SWIDTH 237 0
DWIDTH 2 0
BBX 3 7 0 0
BITMAP
58
34
00
20
60
50
80
ENDCHAR
STARTCHAR uni01D1
ENCODING 465
SWIDTH 633 0
DWIDTH 6 0
BBX 6 8 0 0
BITMAP
0580
0340
0B80
2490
5050
5050
6180
2E00
ENDCHAR
STARTCHAR uni01D2
ENCODING 466
SWIDTH 515 0
DWIDTH 5 0
BBX 5 7 0 0
BITMAP
0940
0A00
0000
2E00
5240
9200
7D00
ENDCHAR
STARTCHAR uni01D3
ENCODING 467
SWIDTH 616 0
DWIDTH 6 0
BBX 6 8 0 0
BITMAP
0580
0340
2050
2050
2080
5080
6140
2E00
ENDCHAR
STARTCHAR uni01D4
ENCODING 468
SWIDTH 528 0
DWIDTH 5 0
BBX 5 7 0 0
BITMAP
0540
0A00
0000
2140
5200
5700
7A00
ENDCHAR
STARTCHAR uni01D5
ENCODING 469
SWIDTH 616 0
DWIDTH 6 0
BBX 6 8 0 0
BITMAP
07C0
0480
2050
2050
2080
5080
6140
2E00
ENDCHAR
STARTCHAR uni01D6
ENCODING 470
SWIDTH 528 0
DWIDTH 5 0
BBX 5 7 0 0
BITMAP
0F40
0500
0000
2140
5200
5700
7A00
ENDCHAR
STARTCHAR uni01D7
ENCODING 471
SWIDTH 616 0
DWIDTH 6 0
BBX 6 9 0 0
BITMAP
0040
0100
0480
2050
2050
2080
5080
6140
2E00
ENDCHAR
STARTCHAR uni01D8
ENCODING 472
SWIDTH 528 0
DWIDTH 5 0
BBX 5 8 0 0
BITMAP
0100
0100
0500
0000
2140
5200
5700
7A00
ENDCHAR
STARTCHAR uni01D9
ENCODING 473
SWIDTH 616 0
DWIDTH 6 0
BBX 6 9 0 0
BITMAP
0140
0240
0480
2050
2050
2080
5080
6140
2E00
ENDCHAR
STARTCHAR uni01DA
ENCODING 474
SWIDTH 528 0
DWIDTH 5 0
BBX 5 8 0 0
BITMAP
0540
0600
0500
0000
2140
5200
5700
7A00
ENDCHAR
STARTCHAR uni01DB
ENCODING 475
SWIDTH 616 0
DWIDTH 6 0
BBX 6 9 0 0
BITMAP
0100
0100
0480
2050
2050
2080
5080
6140
2E00
ENDCHAR
STARTCHAR uni01DC
ENCODING 476
SWIDTH 528 0
DWIDTH 5 0
BBX 5 8 0 0
BITMAP
0400
0100
0500
0000
2140
5200
5700
7A00
ENDCHAR
STARTCHAR Gcaron
ENCODING 486
SWIDTH 588 0
DWIDTH 5 0
BBX 5 8 0 0
BITMAP
0580
0340
0B80
2440
5000
5380
6080
2F40
ENDCHAR
STARTCHAR gcaron
ENCODING 487
SWIDTH 531 0
DWIDTH 5 0
BBX 5 9 0 -2
BITMAP
0540
0A00
0000
2E40
9700
7B00
0200
4900
7800
ENDCHAR
STARTCHAR uni01EA
ENCODING 490
SWIDTH 633 0
DWIDTH 6 0
BBX 6 8 0 -2
BITMAP
0B80
2490
5050
5050
6180
2E00
0400
1C00
ENDCHAR
STARTCHAR uni01EB
ENCODING 491
SWIDTH 515 0
DWIDTH 5 0
BBX 5 6 0 -2
BITMAP
2E00
5240
9200
7D00
1000
3400
ENDCHAR
STARTCHAR uni0218
ENCODING 536
SWIDTH 506 0
DWIDTH 5 0
BBX 5 8 0 -2
BITMAP
1E00
2140
2800
0600
5200
3D00
2400
3400
ENDCHAR
STARTCHAR uni0219
ENCODING 537
SWIDTH 402 0
DWIDTH 4 0
BBX 3 6 0 -2
BITMAP
3C
78
48
78
30
A0
ENDCHAR
STARTCHAR uni021A
ENCODING 538
SWIDTH 510 0
DWIDTH 5 0
BBX 5 8 0 -2
BITMAP
3FC0
0800
0800
0800
1800
1400
2400
7000
ENDCHAR
STARTCHAR uni021B
ENCODING 539
SWIDTH 325 0
DWIDTH 3 0
BBX 3 7 0 -2
BITMAP
20
7C
20
50
74
20
A0
ENDCHAR
STARTCHAR uni0237
ENCODING 567
SWIDTH 238 0
DWIDTH 2 0
BBX 3 6 -1 -2
BITMAP
08
18
14
20
20
D0
ENDCHAR
STARTCHAR uni0243
ENCODING 579
SWIDTH 610 0
DWIDTH 5 0
BBX 5 6 0 0
BITMAP
1F80
2F40
2180
BC80
5180
7E00
ENDCHAR
STARTCHAR uni0251
ENCODING 593
SWIDTH 537 0
DWIDTH 5 0
BBX 5 4 0 0
BITMAP
2E40
6240
9700
7A00
ENDCHAR
STARTCHAR uni0259
ENCODING 601
SWIDTH 478 0
DWIDTH 4 0
BBX 4 4 0 0
BITMAP
2D
02
BE
78
ENDCHAR
STARTCHAR uni0261
ENCODING 609
SWIDTH 531 0
DWIDTH 5 0
BBX 5 6 0 -2
BITMAP
2E40
9700
7B00
0200
4900
7800
ENDCHAR
STARTCHAR h.sups
ENCODING 688
SWIDTH 353 0
DWIDTH 3 0
BBX 3 5 0 2
BITMAP
10
2C
24
54
44
ENDCHAR
STARTCHAR j.sups
ENCODING 690
SWIDTH 164 0
DWIDTH 1 0
BBX 3 6 -1 2
BITMAP
08
04
14
10
20
60
ENDCHAR
STARTCHAR r.sups
ENCODING 691
SWIDTH 224 0
DWIDTH 2 0
BBX 3 4 0 2
BITMAP
14
20
50
40
ENDCHAR
STARTCHAR w.sups
ENCODING 695
SWIDTH 479 0
DWIDTH 4 0
BBX 5 3 0 3
BITMAP
5840
2A00
2600
ENDCHAR
STARTCHAR y.sups
ENCODING 696
SWIDTH 307 0
DWIDTH 3 0
BBX 3 5 0 2
BITMAP
54
14
20
10
C0
ENDCHAR
STARTCHAR uni02B9
ENCODING 697
SWIDTH 242 0
DWIDTH 2 0
BBX 1 2 1 4
BITMAP
40
80
ENDCHAR
STARTCHAR uni02BB
ENCODING 699
SWIDTH 242 0
DWIDTH 2 0
BBX 1 2 1 4
BITMAP
80
80
ENDCHAR
STARTCHAR uni02BC
ENCODING 700
SWIDTH 242 0
DWIDTH 2 0
BBX 2 2 1 4
BITMAP
50
40
ENDCHAR
STARTCHAR uni02BE
ENCODING 702
SWIDTH 151 0
DWIDTH 1 0
BBX 1 2 1 4
BITMAP
80
80
ENDCHAR
STARTCHAR uni02BF
ENCODING 703
SWIDTH 163 0
DWIDTH 1 0
BBX 1 2 1 4
BITMAP
80
80
ENDCHAR
STARTCHAR circumflex
ENCODING 710
SWIDTH 517 0
DWIDTH 5 0
BBX 4 2 1 5
BITMAP
28
65
ENDCHAR
STARTCHAR caron
ENCODING 711
SWIDTH 517 0
DWIDTH 5 0
BBX 3 2 2 5
BITMAP
94
A0
ENDCHAR
STARTCHAR uni02C8
ENCODING 712
SWIDTH 108 0
DWIDTH 1 0
BBX 1 2 1 5
BITMAP
80
40
ENDCHAR
STARTCHAR uni02C9
ENCODING 713
SWIDTH 262 0
DWIDTH 2 0
BBX 3 1 0 5
BITMAP
7C
ENDCHAR
STARTCHAR uni02CA
ENCODING 714
SWIDTH 213 0
DWIDTH 2 0
BBX 2 2 1 5
BITMAP
20
80
ENDCHAR
STARTCHAR uni02CB
ENCODING 715
SWIDTH 213 0
DWIDTH 2 0
BBX 1 2 1 5
BITMAP
80
80
ENDCHAR
STARTCHAR uni02CC
ENCODING 716
SWIDTH 108 0
DWIDTH 1 0
BBX 1 2 -1 -2
BITMAP
40
80
ENDCHAR
STARTCHAR breve
ENCODING 728
SWIDTH 517 0
DWIDTH 5 0
BBX 3 2 2 5
BITMAP
54
A0
ENDCHAR
STARTCHAR dotaccent
ENCODING 729
SWIDTH 517 0
DWIDTH 5 0
BBX 2 1 2 5
BITMAP
50
ENDCHAR
STARTCHAR ring
ENCODING 730
SWIDTH 517 0
DWIDTH 5 0
BBX 2 2 2 5
BITMAP
B0
A0
ENDCHAR
STARTCHAR ogonek
ENCODING 731
SWIDTH 517 0
DWIDTH 5 0
BBX 2 2 1 -2
BITMAP
80
90
ENDCHAR
STARTCHAR tilde
ENCODING 732
SWIDTH 517 0
DWIDTH 5 0
BBX 4 2 1 5
BITMAP
36
49
ENDCHAR
STARTCHAR hungarumlaut
ENCODING 733
SWIDTH 517 0
DWIDTH 5 0
BBX 3 2 2 5
BITMAP
54
54
ENDCHAR
STARTCHAR l.sups
ENCODING 737
SWIDTH 165 0
DWIDTH 1 0
BBX 2 5 0 3
BITMAP
10
20
10
50
50
ENDCHAR
STARTCHAR s.sups
ENCODING 738
SWIDTH 271 0
DWIDTH 2 0
BBX 3 3 0 3
BITMAP
34
40
74
ENDCHAR
STARTCHAR x.sups
ENCODING 739
SWIDTH 295 0
DWIDTH 3 0
BBX 3 3 0 3
BITMAP
18
20
54
ENDCHAR
STARTCHAR uni0300
ENCODING 768
SWIDTH 0 0
DWIDTH 0 0
BBX 2 2 0 5
BITMAP
80
10
ENDCHAR
STARTCHAR uni0301
ENCODING 769
SWIDTH 0 0
DWIDTH 0 0
BBX 3 2 0 5
BITMAP
24
50
ENDCHAR
STARTCHAR uni0302
ENCODING 770
SWIDTH 0 0
DWIDTH 0 0
BBX 3 2 0 5
BITMAP
70
94
ENDCHAR
STARTCHAR uni0303
ENCODING 771
SWIDTH 0 0
DWIDTH 0 0
BBX 4 2 -1 5
BITMAP
36
49
ENDCHAR
STARTCHAR uni0304
ENCODING 772
SWIDTH 0 0
DWIDTH 0 0
BBX 3 1 0 5
BITMAP
F4
ENDCHAR
STARTCHAR uni0306
ENCODING 774
SWIDTH 0 0
DWIDTH 0 0
BBX 3 2 0 5
BITMAP
44
A0
ENDCHAR
STARTCHAR uni0307
ENCODING 775
SWIDTH 0 0
DWIDTH 0 0
BBX 2 1 0 5
BITMAP
50
ENDCHAR
STARTCHAR uni0308
ENCODING 776
SWIDTH 0 0
DWIDTH 0 0
BBX 3 1 0 5
BITMAP
94
ENDCHAR
STARTCHAR uni0309
ENCODING 777
SWIDTH 0 0
DWIDTH 0 0
BBX 2 2 0 5
BITMAP
60
20
ENDCHAR
STARTCHAR uni030A
ENCODING 778
SWIDTH 0 0
DWIDTH 0 0
BBX 2 2 0 5
BITMAP
B0
A0
ENDCHAR
STARTCHAR uni030B
ENCODING 779
SWIDTH 0 0
DWIDTH 0 0
BBX 3 2 0 5
BITMAP
14
54
ENDCHAR
STARTCHAR uni030C
ENCODING 780
SWIDTH 0 0
DWIDTH 0 0
BBX 3 2 0 5
BITMAP
94
A0
ENDCHAR
STARTCHAR uni030F
ENCODING 783
SWIDTH 0 0
DWIDTH 0 0
BBX 3 2 -1 5
BITMAP
54
14
ENDCHAR
STARTCHAR uni0312
ENCODING 786
SWIDTH 0 0
DWIDTH 0 0
BBX 2 2 0 5
BITMAP
10
50
ENDCHAR
STARTCHAR uni0313
ENCODING 787
SWIDTH 0 0
DWIDTH 0 0
BBX 1 2 1 5
BITMAP
80
40
ENDCHAR
STARTCHAR uni031B
ENCODING 795
SWIDTH 0 0
DWIDTH 0 0
BBX 2 2 0 4
BITMAP
20
60
ENDCHAR
STARTCHAR uni0323
ENCODING 803
SWIDTH 0 0
DWIDTH 0 0
BBX 1 1 -1 -2
BITMAP
80
ENDCHAR
STARTCHAR uni0324
ENCODING 804
SWIDTH 0 0
DWIDTH 0 0
BBX 3 1 -2 -2
BITMAP
58
ENDCHAR
STARTCHAR uni0326
ENCODING 806
SWIDTH 0 0
DWIDTH 0 0
BBX 3 2 -2 -2
BITMAP
24
70
ENDCHAR
STARTCHAR uni0327
ENCODING 807
SWIDTH 0 0
DWIDTH 0 0
BBX 3 2 -2 -2
BITMAP
10
74
ENDCHAR
STARTCHAR uni0328
ENCODING 808
SWIDTH 0 0
DWIDTH 0 0
BBX 2 2 -1 -2
BITMAP
80
90
ENDCHAR
STARTCHAR uni032E
ENCODING 814
SWIDTH 0 0
DWIDTH 0 0
BBX 3 2 -2 -2
BITMAP
44
34
ENDCHAR
STARTCHAR uni0331
ENCODING 817
SWIDTH 0 0
DWIDTH 0 0
BBX 3 1 -2 -2
BITMAP
7C
ENDCHAR
STARTCHAR pi
ENCODING 960
SWIDTH 558 0
DWIDTH 5 0
BBX 5 4 0 0
BITMAP
7FC0
2100
2200
5340
ENDCHAR
STARTCHAR a.sups
ENCODING 7491
SWIDTH 354 0
DWIDTH 3 0
BBX 3 3 1 3
BITMAP
A0
94
D0
ENDCHAR
STARTCHAR b.sups
ENCODING 7495
SWIDTH 360 0
DWIDTH 3 0
BBX 4 4 0 3
BITMAP
10
2C
55
28
ENDCHAR
STARTCHAR d.sups
ENCODING 7496
SWIDTH 365 0
DWIDTH 3 0
BBX 4 4 0 3
BITMAP
01
29
58
74
ENDCHAR
STARTCHAR e.sups
ENCODING 7497
SWIDTH 323 0
DWIDTH 3 0
BBX 3 3 0 3
BITMAP
28
7C
74
ENDCHAR
STARTCHAR g.sups
ENCODING 7501
SWIDTH 354 0
DWIDTH 3 0
BBX 3 4 0 2
BITMAP
28
58
7C
74
ENDCHAR
STARTCHAR k.sups
ENCODING 7503
SWIDTH 325 0
DWIDTH 3 0
BBX 3 4 0 4
BITMAP
20
14
64
48
ENDCHAR
STARTCHAR m.sups
ENCODING 7504
SWIDTH 536 0
DWIDTH 5 0
BBX 5 4 0 2
BITMAP
2E80
6580
5880
4440
ENDCHAR
STARTCHAR o.sups
ENCODING 7506
SWIDTH 348 0
DWIDTH 3 0
BBX 3 3 0 3
BITMAP
2C
58
78
ENDCHAR
STARTCHAR p.sups
ENCODING 7510
SWIDTH 358 0
DWIDTH 3 0
BBX 4 4 0 2
BITMAP
2C
55
68
40
ENDCHAR
STARTCHAR t.sups
ENCODING 7511
SWIDTH 222 0
DWIDTH 2 0
BBX 3 4 0 3
BITMAP
10
74
10
70
ENDCHAR
STARTCHAR u.sups
ENCODING 7512
SWIDTH 355 0
DWIDTH 3 0
BBX 3 4 0 3
BITMAP
10
14
58
74
ENDCHAR
STARTCHAR v.sups
ENCODING 7515
SWIDTH 307 0
DWIDTH 3 0
BBX 3 4 0 3
BITMAP
04
58
24
30
ENDCHAR
STARTCHAR c.sups
ENCODING 7580
SWIDTH 292 0
DWIDTH 3 0
BBX 3 3 0 3
BITMAP
28
50
74
ENDCHAR
STARTCHAR f.sups
ENCODING 7584
SWIDTH 194 0
DWIDTH 2 0
BBX 3 6 0 2
BITMAP
18
20
74
10
50
40
ENDCHAR
STARTCHAR z.sups
ENCODING 7611
SWIDTH 279 0
DWIDTH 3 0
BBX 3 3 0 3
BITMAP
38
00
74
ENDCHAR
STARTCHAR uni1E06
ENCODING 7686
SWIDTH 583 0
DWIDTH 5 0
BBX 5 8 0 -2
BITMAP
2F40
2080
3F40
5140
5180
BE00
0000
3D00
ENDCHAR
STARTCHAR uni1E07
ENCODING 7687
SWIDTH 536 0
DWIDTH 5 0
BBX 5 8 0 -2
BITMAP
2000
2000
3B40
6140
5240
AD00
0000
7C00
ENDCHAR
STARTCHAR uni1E0C
ENCODING 7692
SWIDTH 592 0
DWIDTH 5 0
BBX 5 8 0 -2
BITMAP
2F40
2180
2080
5080
5280
BE00
0000
1400
ENDCHAR
STARTCHAR uni1E0D
ENCODING 7693
SWIDTH 535 0
DWIDTH 5 0
BBX 5 8 0 -2
BITMAP
0080
0080
2E40
6240
9600
7A00
0000
2000
ENDCHAR
STARTCHAR uni1E0E
ENCODING 7694
SWIDTH 592 0
DWIDTH 5 0
BBX 5 8 0 -2
BITMAP
2F40
2180
2080
5080
5280
BE00
0000
3D00
ENDCHAR
STARTCHAR uni1E0F
ENCODING 7695
SWIDTH 535 0
DWIDTH 5 0
BBX 5 8 0 -2
BITMAP
0080
0080
2E40
6240
9600
7A00
0000
7C00
ENDCHAR
STARTCHAR uni1E16
ENCODING 7702
SWIDTH 503 0
DWIDTH 5 0
BBX 5 9 0 0
BITMAP
0040
0100
0F40
2F80
2000
3E00
5000
5000
BE00
ENDCHAR
STARTCHAR uni1E17
ENCODING 7703
SWIDTH 481 0
DWIDTH 4 0
BBX 4 8 0 0
BITMAP
01
01
1F
00
2E
7F
90
7C
ENDCHAR
STARTCHAR uni1E20
ENCODING 7712
SWIDTH 588 0
DWIDTH 5 0
BBX 5 7 0 0
BITMAP
07C0
0B80
2440
5000
5380
6080
2F40
ENDCHAR
STARTCHAR uni1E21
ENCODING 7713
SWIDTH 531 0
DWIDTH 5 0
BBX 5 8 0 -2
BITMAP
0F00
0000
2E40
9700
7B00
0200
4900
7800
ENDCHAR
STARTCHAR uni1E24
ENCODING 7716
SWIDTH 622 0
DWIDTH 6 0
BBX 6 8 0 -2
BITMAP
2050
2090
3FC0
5080
5080
8140
0000
0800
ENDCHAR
STARTCHAR uni1E25
ENCODING 7717
SWIDTH 519 0
DWIDTH 5 0
BBX 5 8 0 -2
BITMAP
2000
2000
3F00
6240
5200
8200
0000
2000
ENDCHAR
STARTCHAR uni1E2A
ENCODING 7722
SWIDTH 622 0
DWIDTH 6 0
BBX 6 8 0 -2
BITMAP
2050
2090
3FC0
5080
5080
8140
2100
2C00
ENDCHAR
STARTCHAR uni1E2B
ENCODING 7723
SWIDTH 519 0
DWIDTH 5 0
BBX 5 8 0 -2
BITMAP
2000
2000
3F00
6240
5200
8200
4400
3800
ENDCHAR
STARTCHAR uni1E34
ENCODING 7732
SWIDTH 559 0
DWIDTH 5 0
BBX 5 8 0 -2
BITMAP
2080
2200
2900
6600
5200
8140
0000
3D00
ENDCHAR
STARTCHAR uni1E35
ENCODING 7733
SWIDTH 476 0
DWIDTH 4 0
BBX 4 8 0 -2
BITMAP
20
20
22
68
68
82
00
7C
ENDCHAR
STARTCHAR uni1E36
ENCODING 7734
SWIDTH 462 0
DWIDTH 4 0
BBX 4 8 0 -2
BITMAP
20
20
20
50
50
BE
00
20
ENDCHAR
STARTCHAR uni1E37
ENCODING 7735
SWIDTH 248 0
DWIDTH 2 0
BBX 2 8 0 -2
BITMAP
20
20
20
50
50
90
00
80
ENDCHAR
STARTCHAR uni1E38
ENCODING 7736
SWIDTH 462 0
DWIDTH 4 0
BBX 4 9 0 -2
BITMAP
3C
20
20
20
50
50
BE
00
20
ENDCHAR
STARTCHAR uni1E39
ENCODING 7737
SWIDTH 248 0
DWIDTH 2 0
BBX 4 10 0 -2
BITMAP
3D
00
20
20
20
50
50
90
00
80
ENDCHAR
STARTCHAR uni1E3A
ENCODING 7738
SWIDTH 462 0
DWIDTH 4 0
BBX 4 8 0 -2
BITMAP
20
20
20
50
50
BE
00
7C
ENDCHAR
STARTCHAR uni1E3B
ENCODING 7739
SWIDTH 248 0
DWIDTH 2 0
BBX 3 8 -1 -2
BITMAP
08
08
08
14
14
24
00
B8
ENDCHAR
STARTCHAR uni1E42
ENCODING 7746
SWIDTH 705 0
DWIDTH 6 0
BBX 7 8 0 -2
BITMAP
2424
2860
28A0
5960
5550
8050
0000
0800
ENDCHAR
STARTCHAR uni1E43
ENCODING 7747
SWIDTH 799 0
DWIDTH 7 0
BBX 7 6 0 -2
BITMAP
2BB8
6248
5214
8214
0000
0500
ENDCHAR
STARTCHAR uni1E44
ENCODING 7748
SWIDTH 619 0
DWIDTH 6 0
BBX 6 7 0 0
BITMAP
0200
2450
2850
2880
5580
5280
8240
ENDCHAR
STARTCHAR uni1E45
ENCODING 7749
SWIDTH 525 0
DWIDTH 5 0
BBX 5 6 0 0
BITMAP
0600
0000
2B00
6240
5200
8200
ENDCHAR
STARTCHAR uni1E46
ENCODING 7750
SWIDTH 619 0
DWIDTH 6 0
BBX 6 8 0 -2
BITMAP
2450
2850
2880
5580
5280
8240
0000
0800
ENDCHAR
STARTCHAR uni1E47
ENCODING 7751
SWIDTH 525 0
DWIDTH 5 0
BBX 5 6 0 -2
BITMAP
2B00
6240
5200
8200
0000
2000
ENDCHAR
STARTCHAR uni1E48
ENCODING 7752
SWIDTH 619 0
DWIDTH 6 0
BBX 6 8 0 -2
BITMAP
2450
2850
2880
5580
5280
8240
0000
3D00
ENDCHAR
STARTCHAR uni1E49
ENCODING 7753
SWIDTH 525 0
DWIDTH 5 0
BBX 5 6 0 -2
BITMAP
2B00
6240
5200
8200
0000
7C00
ENDCHAR
STARTCHAR uni1E52
ENCODING 7762
SWIDTH 633 0
DWIDTH 6 0
BBX 6 9 0 0
BITMAP
0040
0000
07C0
0B80
2490
5050
5050
6180
2E00
ENDCHAR
STARTCHAR uni1E53
ENCODING 7763
SWIDTH 515 0
DWIDTH 5 0
BBX 5 8 0 0
BITMAP
0100
0100
0F40
0000
2E00
5240
9200
7D00
ENDCHAR
STARTCHAR uni1E5A
ENCODING 7770
SWIDTH 555 0
DWIDTH 5 0
BBX 5 8 0 -2
BITMAP
2F80
2080
2180
7E00
5600
8200
0000
1400
ENDCHAR
STARTCHAR uni1E5B
ENCODING 7771
SWIDTH 342 0
DWIDTH 3 0
BBX 4 6 0 -2
BITMAP
29
60
50
80
00
80
ENDCHAR
STARTCHAR uni1E5C
ENCODING 7772
SWIDTH 555 0
DWIDTH 5 0
BBX 5 9 0 -2
BITMAP
0B80
2F80
2080
2180
7E00
5600
8200
0000
1400
ENDCHAR
STARTCHAR uni1E5D
ENCODING 7773
SWIDTH 342 0
DWIDTH 3 0
BBX 4 8 0 -2
BITMAP
2E
00
29
60
50
80
00
80
ENDCHAR
STARTCHAR uni1E5E
ENCODING 7774
SWIDTH 555 0
DWIDTH 5 0
BBX 5 8 0 -2
BITMAP
2F80
2080
2180
7E00
5600
8200
0000
3D00
ENDCHAR
STARTCHAR uni1E5F
ENCODING 7775
SWIDTH 342 0
DWIDTH 3 0
BBX 5 6 -1 -2
BITMAP
0A40
1800
1400
2000
0000
B800
ENDCHAR
STARTCHAR uni1E60
ENCODING 7776
SWIDTH 506 0
DWIDTH 5 0
BBX 5 7 0 0
BITMAP
0200
1E00
2140
2800
0600
5200
3D00
ENDCHAR
STARTCHAR uni1E61
ENCODING 7777
SWIDTH 402 0
DWIDTH 4 0
BBX 3 6 0 0
BITMAP
08
00
3C
78
48
78
ENDCHAR
STARTCHAR uni1E62
ENCODING 7778
SWIDTH 506 0
DWIDTH 5 0
BBX 5 8 0 -2
BITMAP
1E00
2140
2800
0600
5200
3D00
0000
2000
ENDCHAR
STARTCHAR uni1E63
ENCODING 7779
SWIDTH 402 0
DWIDTH 4 0
BBX 3 6 0 -2
BITMAP
3C
78
48
78
00
20
ENDCHAR
STARTCHAR uni1E6C
ENCODING 7788
SWIDTH 510 0
DWIDTH 5 0
BBX 4 8 1 -2
BITMAP
FF
20
20
20
60
50
00
80
ENDCHAR
STARTCHAR uni1E6D
ENCODING 7789
SWIDTH 325 0
DWIDTH 3 0
BBX 3 7 0 -2
BITMAP
20
7C
20
50
74
00
20
ENDCHAR
STARTCHAR uni1E6E
ENCODING 7790
SWIDTH 510 0
DWIDTH 5 0
BBX 5 8 0 -2
BITMAP
3FC0
0800
0800
0800
1800
1400
0000
7800
ENDCHAR
STARTCHAR uni1E6F
ENCODING 7791
SWIDTH 325 0
DWIDTH 3 0
BBX 3 7 0 -2
BITMAP
20
7C
20
50
74
00
F4
ENDCHAR
STARTCHAR Wgrave
ENCODING 7808
SWIDTH 756 0
DWIDTH 7 0
BBX 6 8 1 0
BITMAP
0800
0100
8520
8A20
9650
A280
9240
C300
ENDCHAR
STARTCHAR wgrave
ENCODING 7809
SWIDTH 707 0
DWIDTH 6 0
BBX 6 7 0 0
BITMAP
0200
0140
0000
5210
5620
6640
3180
ENDCHAR
STARTCHAR Wacute
ENCODING 7810
SWIDTH 756 0
DWIDTH 7 0
BBX 6 8 1 0
BITMAP
0140
0000
8520
8A20
9650
A280
9240
C300
ENDCHAR
STARTCHAR wacute
ENCODING 7811
SWIDTH 707 0
DWIDTH 6 0
BBX 6 7 0 0
BITMAP
0080
0140
0000
5210
5620
6640
3180
ENDCHAR
STARTCHAR Wdieresis
ENCODING 7812
SWIDTH 756 0
DWIDTH 7 0
BBX 6 7 1 0
BITMAP
0940
8520
8A20
9650
A280
9240
C300
ENDCHAR
STARTCHAR wdieresis
ENCODING 7813
SWIDTH 707 0
DWIDTH 6 0
BBX 6 6 0 0
BITMAP
0580
0000
5210
5620
6640
3180
ENDCHAR
STARTCHAR uni1E8E
ENCODING 7822
SWIDTH 461 0
DWIDTH 4 0
BBX 4 7 1 0
BITMAP
14
86
88
A4
60
50
80
ENDCHAR
STARTCHAR uni1E8F
ENCODING 7823
SWIDTH 448 0
DWIDTH 4 0
BBX 5 8 -1 -2
BITMAP
0200
0000
1480
1440
0A00
0900
0800
7000
ENDCHAR
STARTCHAR uni1E92
ENCODING 7826
SWIDTH 512 0
DWIDTH 5 0
BBX 5 8 0 -2
BITMAP
2F80
0240
0500
1400
5000
FF00
0000
2000
ENDCHAR
STARTCHAR uni1E93
ENCODING 7827
SWIDTH 410 0
DWIDTH 4 0
BBX 4 6 0 -2
BITMAP
3E
04
50
FC
00
20
ENDCHAR
STARTCHAR uni1E97
ENCODING 7831
SWIDTH 325 0
DWIDTH 3 0
BBX 4 7 0 0
BITMAP
25
00
20
7C
20
50
74
ENDCHAR
STARTCHAR uni1E9E
ENCODING 7838
SWIDTH 633 0
DWIDTH 6 0
BBX 6 6 0 0
BITMAP
0B80
2480
2340
6180
5490
8780
ENDCHAR
STARTCHAR uni1EA0
ENCODING 7840
SWIDTH 510 0
DWIDTH 5 0
BBX 5 8 -1 -2
BITMAP
0180
0180
0480
0FC0
2080
6080
0000
0800
ENDCHAR
STARTCHAR uni1EA1
ENCODING 7841
SWIDTH 537 0
DWIDTH 5 0
BBX 5 6 0 -2
BITMAP
2E40
6240
9700
7A00
0000
1400
ENDCHAR
STARTCHAR uni1EA2
ENCODING 7842
SWIDTH 510 0
DWIDTH 5 0
BBX 5 8 -1 0
BITMAP
0180
0080
0280
0180
0480
0FC0
2080
6080
ENDCHAR
STARTCHAR uni1EA3
ENCODING 7843
SWIDTH 537 0
DWIDTH 5 0
BBX 5 7 0 0
BITMAP
0600
0200
0000
2E40
6240
9700
7A00
ENDCHAR
STARTCHAR uni1EA4
ENCODING 7844
SWIDTH 510 0
DWIDTH 5 0
BBX 6 8 -1 0
BITMAP
01D0
0140
0180
0180
0480
0FC0
2080
6080
ENDCHAR
STARTCHAR uni1EA5
ENCODING 7845
SWIDTH 537 0
DWIDTH 5 0
BBX 5 7 0 0
BITMAP
0A40
0500
0000
2E40
6240
9700
7A00
ENDCHAR
STARTCHAR uni1EA6
ENCODING 7846
SWIDTH 510 0
DWIDTH 5 0
BBX 5 8 -1 0
BITMAP
06C0
0140
0180
0180
0480
0FC0
2080
6080
ENDCHAR
STARTCHAR uni1EA7
ENCODING 7847
SWIDTH 537 0
DWIDTH 5 0
BBX 5 7 0 0
BITMAP
2A00
0500
0000
2E40
6240
9700
7A00
ENDCHAR
STARTCHAR uni1EA8
ENCODING 7848
SWIDTH 510 0
DWIDTH 5 0
BBX 6 8 -1 0
BITMAP
01E0
0160
0180
0180
0480
0FC0
2080
6080
ENDCHAR
STARTCHAR uni1EA9
ENCODING 7849
SWIDTH 537 0
DWIDTH 5 0
BBX 5 7 0 0
BITMAP
0A80
0580
0000
2E40
6240
9700
7A00
ENDCHAR
STARTCHAR uni1EAA
ENCODING 7850
SWIDTH 510 0
DWIDTH 5 0
BBX 6 9 -1 0
BITMAP
0290
02D0
0140
0180
0180
0480
0FC0
2080
6080
ENDCHAR
STARTCHAR uni1EAB
ENCODING 7851
SWIDTH 537 0
DWIDTH 5 0
BBX 5 8 0 0
BITMAP
0940
0F40
0500
0000
2E40
6240
9700
7A00
ENDCHAR
STARTCHAR uni1EAC
ENCODING 7852
SWIDTH 510 0
DWIDTH 5 0
BBX 6 10 -1 -2
BITMAP
01C0
0250
0180
0180
0480
0FC0
2080
6080
0000
0800
ENDCHAR
STARTCHAR uni1EAD
ENCODING 7853
SWIDTH 537 0
DWIDTH 5 0
BBX 5 9 0 -2
BITMAP
0A00
1940
0000
2E40
6240
9700
7A00
0000
1400
ENDCHAR
STARTCHAR uni1EAE
ENCODING 7854
SWIDTH 510 0
DWIDTH 5 0
BBX 6 9 -1 0
BITMAP
0040
0150
0280
0180
0180
0480
0FC0
2080
6080
ENDCHAR
STARTCHAR uni1EAF
ENCODING 7855
SWIDTH 537 0
DWIDTH 5 0
BBX 5 8 0 0
BITMAP
0040
0940
0700
0000
2E40
6240
9700
7A00
ENDCHAR
STARTCHAR uni1EB0
ENCODING 7856
SWIDTH 510 0
DWIDTH 5 0
BBX 6 9 -1 0
BITMAP
0140
0150
0280
0180
0180
0480
0FC0
2080
6080
ENDCHAR
STARTCHAR uni1EB1
ENCODING 7857
SWIDTH 537 0
DWIDTH 5 0
BBX 5 8 0 0
BITMAP
0100
0940
0700
0000
2E40
6240
9700
7A00
ENDCHAR
STARTCHAR uni1EB2
ENCODING 7858
SWIDTH 510 0
DWIDTH 5 0
BBX 6 9 -1 0
BITMAP
0080
0190
0280
0180
0180
0480
0FC0
2080
6080
ENDCHAR
STARTCHAR uni1EB3
ENCODING 7859
SWIDTH 537 0
DWIDTH 5 0
BBX 5 8 0 0
BITMAP
0200
0A80
0B00
0000
2E40
6240
9700
7A00
ENDCHAR
STARTCHAR uni1EB4
ENCODING 7860
SWIDTH 510 0
DWIDTH 5 0
BBX 6 11 -1 0
BITMAP
0290
0190
0000
0210
02C0
0180
0180
0480
0FC0
2080
6080
ENDCHAR
STARTCHAR uni1EB5
ENCODING 7861
SWIDTH 537 0
DWIDTH 5 0
BBX 5 10 0 0
BITMAP
0640
0640
0000
0840
0B00
0000
2E40
6240
9700
7A00
ENDCHAR
STARTCHAR uni1EB6
ENCODING 7862
SWIDTH 510 0
DWIDTH 5 0
BBX 6 10 -1 -2
BITMAP
0110
0280
0180
0180
0480
0FC0
2080
6080
0000
0800
ENDCHAR
STARTCHAR uni1EB7
ENCODING 7863
SWIDTH 537 0
DWIDTH 5 0
BBX 5 9 0 -2
BITMAP
0540
0A00
0000
2E40
6240
9700
7A00
0000
1400
ENDCHAR
STARTCHAR uni1EB8
ENCODING 7864
SWIDTH 503 0
DWIDTH 5 0
BBX 5 8 0 -2
BITMAP
2F80
2000
3E00
5000
5000
BE00
0000
1400
ENDCHAR
STARTCHAR uni1EB9
ENCODING 7865
SWIDTH 481 0
DWIDTH 4 0
BBX 4 6 0 -2
BITMAP
2E
7F
90
7C
00
20
ENDCHAR
STARTCHAR uni1EBA
ENCODING 7866
SWIDTH 503 0
DWIDTH 5 0
BBX 5 8 0 0
BITMAP
0600
0200
2F80
2000
3E00
5000
5000
BE00
ENDCHAR
STARTCHAR uni1EBB
ENCODING 7867
SWIDTH 481 0
DWIDTH 4 0
BBX 4 7 0 0
BITMAP
05
02
00
2E
7F
90
7C
ENDCHAR
STARTCHAR uni1EBC
ENCODING 7868
SWIDTH 503 0
DWIDTH 5 0
BBX 5 8 0 0
BITMAP
0D80
1680
2F80
2000
3E00
5000
5000
BE00
ENDCHAR
STARTCHAR uni1EBD
ENCODING 7869
SWIDTH 481 0
DWIDTH 4 0
BBX 5 7 0 0
BITMAP
1D40
1340
0000
2E00
7F00
9000
7C00
ENDCHAR
STARTCHAR uni1EBE
ENCODING 7870
SWIDTH 503 0
DWIDTH 5 0
BBX 5 8 0 0
BITMAP
0740
0540
2F80
2000
3E00
5000
5000
BE00
ENDCHAR
STARTCHAR uni1EBF
ENCODING 7871
SWIDTH 481 0
DWIDTH 4 0
BBX 5 7 0 0
BITMAP
0A80
0500
0000
2E00
7F00
9000
7C00
ENDCHAR
STARTCHAR uni1EC0
ENCODING 7872
SWIDTH 503 0
DWIDTH 5 0
BBX 5 8 0 0
BITMAP
1B00
0540
2F80
2000
3E00
5000
5000
BE00
ENDCHAR
STARTCHAR uni1EC1
ENCODING 7873
SWIDTH 481 0
DWIDTH 4 0
BBX 4 7 0 0
BITMAP
2A
15
00
2E
7F
90
7C
ENDCHAR
STARTCHAR uni1EC2
ENCODING 7874
SWIDTH 503 0
DWIDTH 5 0
BBX 5 8 0 0
BITMAP
0780
0580
2F80
2000
3E00
5000
5000
BE00
ENDCHAR
STARTCHAR uni1EC3
ENCODING 7875
SWIDTH 481 0
DWIDTH 4 0
BBX 5 7 0 0
BITMAP
0A80
0580
0000
2E00
7F00
9000
7C00
ENDCHAR
STARTCHAR uni1EC4
ENCODING 7876
SWIDTH 503 0
DWIDTH 5 0
BBX 5 9 0 0
BITMAP
0640
0B80
0540
2F80
2000
3E00
5000
5000
BE00
ENDCHAR
STARTCHAR uni1EC5
ENCODING 7877
SWIDTH 481 0
DWIDTH 4 0
BBX 5 8 0 0
BITMAP
0940
0F00
0500
0000
2E00
7F00
9000
7C00
ENDCHAR
STARTCHAR uni1EC6
ENCODING 7878
SWIDTH 503 0
DWIDTH 5 0
BBX 5 10 0 -2
BITMAP
0700
0940
2F80
2000
3E00
5000
5000
BE00
0000
1400
ENDCHAR
STARTCHAR uni1EC7
ENCODING 7879
SWIDTH 481 0
DWIDTH 4 0
BBX 4 9 0 -2
BITMAP
0A
16
00
2E
7F
90
7C
00
20
ENDCHAR
STARTCHAR uni1EC8
ENCODING 7880
SWIDTH 252 0
DWIDTH 2 0
BBX 3 8 0 0
BITMAP
24
14
20
20
20
60
50
80
ENDCHAR
STARTCHAR uni1EC9
ENCODING 7881
SWIDTH 237 0
DWIDTH 2 0
BBX 3 7 0 0
BITMAP
24
14
00
20
60
50
80
ENDCHAR
STARTCHAR uni1ECA
ENCODING 7882
SWIDTH 252 0
DWIDTH 2 0
BBX 2 8 0 -2
BITMAP
20
20
20
60
50
80
00
80
ENDCHAR
STARTCHAR uni1ECB
ENCODING 7883
SWIDTH 237 0
DWIDTH 2 0
BBX 2 8 0 -2
BITMAP
20
00
20
60
50
80
00
80
ENDCHAR
STARTCHAR uni1ECC
ENCODING 7884
SWIDTH 633 0
DWIDTH 6 0
BBX 6 8 0 -2
BITMAP
0B80
2490
5050
5050
6180
2E00
0000
0800
ENDCHAR
STARTCHAR uni1ECD
ENCODING 7885
SWIDTH 515 0
DWIDTH 5 0
BBX 5 6 0 -2
BITMAP
2E00
5240
9200
7D00
0000
2000
ENDCHAR
STARTCHAR uni1ECE
ENCODING 7886
SWIDTH 633 0
DWIDTH 6 0
BBX 6 8 0 0
BITMAP
0200
0140
0B80
2490
5050
5050
6180
2E00
ENDCHAR
STARTCHAR uni1ECF
ENCODING 7887
SWIDTH 515 0
DWIDTH 5 0
BBX 5 7 0 0
BITMAP
0600
0200
0000
2E00
5240
9200
7D00
ENDCHAR
STARTCHAR uni1ED0
ENCODING 7888
SWIDTH 633 0
DWIDTH 6 0
BBX 6 8 0 0
BITMAP
0290
0540
0B80
2490
5050
5050
6180
2E00
ENDCHAR
STARTCHAR uni1ED1
ENCODING 7889
SWIDTH 515 0
DWIDTH 5 0
BBX 5 7 0 0
BITMAP
0A40
0500
0000
2E00
5240
9200
7D00
ENDCHAR
STARTCHAR uni1ED2
ENCODING 7890
SWIDTH 633 0
DWIDTH 6 0
BBX 6 8 0 0
BITMAP
0640
0540
0B80
2490
5050
5050
6180
2E00
ENDCHAR
STARTCHAR uni1ED3
ENCODING 7891
SWIDTH 515 0
DWIDTH 5 0
BBX 5 7 0 0
BITMAP
2A00
0500
0000
2E00
5240
9200
7D00
ENDCHAR
STARTCHAR uni1ED4
ENCODING 7892
SWIDTH 633 0
DWIDTH 6 0
BBX 6 8 0 0
BITMAP
0290
0550
0B80
2490
5050
5050
6180
2E00
ENDCHAR
STARTCHAR uni1ED5
ENCODING 7893
SWIDTH 515 0
DWIDTH 5 0
BBX 5 7 0 0
BITMAP
0A80
0580
0000
2E00
5240
9200
7D00
ENDCHAR
STARTCHAR uni1ED6
ENCODING 7894
SWIDTH 633 0
DWIDTH 6 0
BBX 6 9 0 0
BITMAP
0350
07C0
0540
0B80
2490
5050
5050
6180
2E00
ENDCHAR
STARTCHAR uni1ED7
ENCODING 7895
SWIDTH 515 0
DWIDTH 5 0
BBX 5 8 0 0
BITMAP
0940
0F40
0500
0000
2E00
5240
9200
7D00
ENDCHAR
STARTCHAR uni1ED8
ENCODING 7896
SWIDTH 633 0
DWIDTH 6 0
BBX 6 10 0 -2
BITMAP
0340
0580
0B80
2490
5050
5050
6180
2E00
0000
0800
ENDCHAR
STARTCHAR uni1ED9
ENCODING 7897
SWIDTH 515 0
DWIDTH 5 0
BBX 5 9 0 -2
BITMAP
0A00
1940
0000
2E00
5240
9200
7D00
0000
2000
ENDCHAR
STARTCHAR uni1EDA
ENCODING 7898
SWIDTH 633 0
DWIDTH 6 0
BBX 6 8 0 0
BITMAP
0140
0020
0B90
2490
5050
5050
6180
2E00
ENDCHAR
STARTCHAR uni1EDB
ENCODING 7899
SWIDTH 517 0
DWIDTH 5 0
BBX 5 7 0 0
BITMAP
0200
0500
0080
2F80
5240
9200
7D00
ENDCHAR
STARTCHAR uni1EDC
ENCODING 7900
SWIDTH 633 0
DWIDTH 6 0
BBX 6 8 0 0
BITMAP
0500
0220
0B90
2490
5050
5050
6180
2E00
ENDCHAR
STARTCHAR uni1EDD
ENCODING 7901
SWIDTH 517 0
DWIDTH 5 0
BBX 5 7 0 0
BITMAP
0800
0500
0080
2F80
5240
9200
7D00
ENDCHAR
STARTCHAR uni1EDE
ENCODING 7902
SWIDTH 633 0
DWIDTH 6 0
BBX 6 8 0 0
BITMAP
0200
0260
0B90
2490
5050
5050
6180
2E00
ENDCHAR
STARTCHAR uni1EDF
ENCODING 7903
SWIDTH 517 0
DWIDTH 5 0
BBX 5 7 0 0
BITMAP
0500
0200
0080
2F80
5240
9200
7D00
ENDCHAR
STARTCHAR uni1EE0
ENCODING 7904
SWIDTH 633 0
DWIDTH 6 0
BBX 6 8 0 0
BITMAP
0A80
06A0
0B90
2490
5050
5050
6180
2E00
ENDCHAR
STARTCHAR uni1EE1
ENCODING 7905
SWIDTH 517 0
DWIDTH 5 0
BBX 5 7 0 0
BITMAP
1940
1700
0080
2F80
5240
9200
7D00
ENDCHAR
STARTCHAR uni1EE2
ENCODING 7906
SWIDTH 633 0
DWIDTH 6 0
BBX 6 9 0 -2
BITMAP
0020
0B90
2490
5050
5050
6180
2E00
0000
0800
ENDCHAR
STARTCHAR uni1EE3
ENCODING 7907
SWIDTH 517 0
DWIDTH 5 0
BBX 5 7 0 -2
BITMAP
0080
2F80
5240
9200
7D00
0000
2000
ENDCHAR
STARTCHAR uni1EE4
ENCODING 7908
SWIDTH 616 0
DWIDTH 6 0
BBX 6 8 0 -2
BITMAP
2050
2050
2080
5080
6140
2E00
0000
1400
ENDCHAR
STARTCHAR uni1EE5
ENCODING 7909
SWIDTH 528 0
DWIDTH 5 0
BBX 5 6 0 -2
BITMAP
2140
5200
5700
7A00
0000
1400
ENDCHAR
STARTCHAR uni1EE6
ENCODING 7910
SWIDTH 616 0
DWIDTH 6 0
BBX 6 8 0 0
BITMAP
0200
0240
2050
2050
2080
5080
6140
2E00
ENDCHAR
STARTCHAR uni1EE7
ENCODING 7911
SWIDTH 528 0
DWIDTH 5 0
BBX 5 7 0 0
BITMAP
0500
0200
0000
2140
5200
5700
7A00
ENDCHAR
STARTCHAR uni1EE8
ENCODING 7912
SWIDTH 629 0
DWIDTH 6 0
BBX 7 8 0 0
BITMAP
0140
0008
2060
2050
2080
5080
6180
2E00
ENDCHAR
STARTCHAR uni1EE9
ENCODING 7913
SWIDTH 543 0
DWIDTH 5 0
BBX 6 7 0 0
BITMAP
0200
0510
0040
2140
5200
5600
7A00
ENDCHAR
STARTCHAR uni1EEA
ENCODING 7914
SWIDTH 629 0
DWIDTH 6 0
BBX 7 8 0 0
BITMAP
0500
0208
2060
2050
2080
5080
6180
2E00
ENDCHAR
STARTCHAR uni1EEB
ENCODING 7915
SWIDTH 543 0
DWIDTH 5 0
BBX 6 7 0 0
BITMAP
0800
0510
0040
2140
5200
5600
7A00
ENDCHAR
STARTCHAR uni1EEC
ENCODING 7916
SWIDTH 629 0
DWIDTH 6 0
BBX 7 8 0 0
BITMAP
0200
0208
2060
2050
2080
5080
6180
2E00
ENDCHAR
STARTCHAR uni1EED
ENCODING 7917
SWIDTH 543 0
DWIDTH 5 0
BBX 6 7 0 0
BITMAP
0500
0210
0040
2140
5200
5600
7A00
ENDCHAR
STARTCHAR uni1EEE
ENCODING 7918
SWIDTH 629 0
DWIDTH 6 0
BBX 7 8 0 0
BITMAP
0A50
0588
2060
2050
2080
5080
6180
2E00
ENDCHAR
STARTCHAR uni1EEF
ENCODING 7919
SWIDTH 543 0
DWIDTH 5 0
BBX 6 7 0 0
BITMAP
1D80
1350
0040
2140
5200
5600
7A00
ENDCHAR
STARTCHAR uni1EF0
ENCODING 7920
SWIDTH 629 0
DWIDTH 6 0
BBX 7 9 0 -2
BITMAP
0008
2060
2050
2080
5080
6180
2E00
0000
1400
ENDCHAR
STARTCHAR uni1EF1
ENCODING 7921
SWIDTH 543 0
DWIDTH 5 0
BBX 6 8 0 -2
BITMAP
0010
0040
2140
5200
5600
7A00
0000
1400
ENDCHAR
STARTCHAR Ygrave
ENCODING 7922
SWIDTH 461 0
DWIDTH 4 0
BBX 4 8 1 0
BITMAP
20
14
86
88
A4
60
50
80
ENDCHAR
STARTCHAR ygrave
ENCODING 7923
SWIDTH 448 0
DWIDTH 4 0
BBX 5 9 -1 -2
BITMAP
0100
0200
0000
1480
1440
0A00
0900
0800
7000
ENDCHAR
STARTCHAR uni1EF4
ENCODING 7924
SWIDTH 461 0
DWIDTH 4 0
BBX 4 8 1 -2
BITMAP
86
88
A4
60
50
80
00
80
ENDCHAR
STARTCHAR uni1EF5
ENCODING 7925
SWIDTH 448 0
DWIDTH 4 0
BBX 5 6 -1 -2
BITMAP
1480
1440
0A00
0900
0800
7200
ENDCHAR
STARTCHAR uni1EF6
ENCODING 7926
SWIDTH 461 0
DWIDTH 4 0
BBX 4 8 1 0
BITMAP
24
14
86
88
A4
60
50
80
ENDCHAR
STARTCHAR uni1EF7
ENCODING 7927
SWIDTH 448 0
DWIDTH 4 0
BBX 5 9 -1 -2
BITMAP
0200
0140
0000
1480
1440
0A00
0900
0800
7000
ENDCHAR
STARTCHAR uni1EF8
ENCODING 7928
SWIDTH 461 0
DWIDTH 4 0
BBX 4 8 1 0
BITMAP
75
5C
86
88
A4
60
50
80
ENDCHAR
STARTCHAR uni1EF9
ENCODING 7929
SWIDTH 448 0
DWIDTH 4 0
BBX 6 9 -1 -2
BITMAP
0A50
0580
0000
1480
1440
0A00
0900
0800
7000
ENDCHAR
STARTCHAR uni2007
ENCODING 8199
SWIDTH 480 0
DWIDTH 4 0
BBX 1 1 0 0
BITMAP
00
ENDCHAR
STARTCHAR figuredash
ENCODING 8210
SWIDTH 480 0
DWIDTH 4 0
BBX 4 1 0 2
BITMAP
BF
ENDCHAR
STARTCHAR endash
ENCODING 8211
SWIDTH 463 0
DWIDTH 4 0
BBX 4 1 0 2
BITMAP
BE
ENDCHAR
STARTCHAR emdash
ENCODING 8212
SWIDTH 769 0
DWIDTH 7 0
BBX 7 1 0 2
BITMAP
BFF8
ENDCHAR
STARTCHAR uni2015
ENCODING 8213
SWIDTH 769 0
DWIDTH 7 0
BBX 7 1 0 2
BITMAP
BFF8
ENDCHAR
STARTCHAR quoteleft
ENCODING 8216
SWIDTH 242 0
DWIDTH 2 0
BBX 1 2 1 4
BITMAP
80
80
ENDCHAR
STARTCHAR quoteright
ENCODING 8217
SWIDTH 242 0
DWIDTH 2 0
BBX 2 2 1 4
BITMAP
50
40
ENDCHAR
STARTCHAR quotesinglbase
ENCODING 8218
SWIDTH 242 0
DWIDTH 2 0
BBX 2 2 0 -1
BITMAP
90
40
ENDCHAR
STARTCHAR quotedblleft
ENCODING 8220
SWIDTH 408 0
DWIDTH 4 0
BBX 3 2 1 4
BITMAP
94
94
ENDCHAR
STARTCHAR quotedblright
ENCODING 8221
SWIDTH 408 0
DWIDTH 4 0
BBX 3 2 1 4
BITMAP
58
54
ENDCHAR
STARTCHAR quotedblbase
ENCODING 8222
SWIDTH 408 0
DWIDTH 4 0
BBX 3 2 0 -1
BITMAP
98
54
ENDCHAR
STARTCHAR dagger
ENCODING 8224
SWIDTH 435 0
DWIDTH 4 0
BBX 3 7 1 -1
BITMAP
20
FC
20
10
50
80
80
ENDCHAR
STARTCHAR daggerdbl
ENCODING 8225
SWIDTH 435 0
DWIDTH 4 0
BBX 4 8 0 -2
BITMAP
08
3F
04
14
10
BD
20
10
ENDCHAR
STARTCHAR bullet
ENCODING 8226
SWIDTH 295 0
DWIDTH 3 0
BBX 2 2 0 1
BITMAP
70
70
ENDCHAR
STARTCHAR ellipsis
ENCODING 8230
SWIDTH 960 0
DWIDTH 9 0
BBX 7 1 1 0
BITMAP
8618
ENDCHAR
STARTCHAR uni202F
ENCODING 8239
SWIDTH 121 0
DWIDTH 1 0
BBX 1 1 0 0
BITMAP
00
ENDCHAR
STARTCHAR perthousand
ENCODING 8240
SWIDTH 1144 0
DWIDTH 10 0
BBX 10 6 0 0
BITMAP
2C1000
554000
59B4E0
798A20
048A20
10B1D0
ENDCHAR
STARTCHAR uni2032
ENCODING 8242
SWIDTH 242 0
DWIDTH 2 0
BBX 1 2 1 4
BITMAP
40
80
ENDCHAR
STARTCHAR uni2033
ENCODING 8243
SWIDTH 408 0
DWIDTH 4 0
BBX 3 2 1 4
BITMAP
58
94
ENDCHAR
STARTCHAR guilsinglleft
ENCODING 8249
SWIDTH 252 0
DWIDTH 2 0
BBX 2 3 0 1
BITMAP
10
80
10
ENDCHAR
STARTCHAR guilsinglright
ENCODING 8250
SWIDTH 252 0
DWIDTH 2 0
BBX 2 3 0 1
BITMAP
10
20
40
ENDCHAR
STARTCHAR fraction
ENCODING 8260
SWIDTH 84 0
DWIDTH 1 0
BBX 5 6 -2 0
BITMAP
0040
0100
0400
0400
1000
4000
ENDCHAR
STARTCHAR zero.sups
ENCODING 8304
SWIDTH 357 0
DWIDTH 3 0
BBX 3 4 1 4
BITMAP
74
88
54
A0
ENDCHAR
STARTCHAR i.sups
ENCODING 8305
SWIDTH 163 0
DWIDTH 1 0
BBX 2 5 0 3
BITMAP
20
10
10
50
40
ENDCHAR
STARTCHAR four.sups
ENCODING 8308
SWIDTH 354 0
DWIDTH 3 0
BBX 3 4 1 4
BITMAP
24
60
F4
10
ENDCHAR
STARTCHAR five.sups
ENCODING 8309
SWIDTH 351 0
DWIDTH 3 0
BBX 3 4 1 4
BITMAP
78
B0
54
A0
ENDCHAR
STARTCHAR six.sups
ENCODING 8310
SWIDTH 353 0
DWIDTH 3 0
BBX 3 4 1 4
BITMAP
74
80
F0
B0
ENDCHAR
STARTCHAR seven.sups
ENCODING 8311
SWIDTH 353 0
DWIDTH 3 0
BBX 3 4 1 4
BITMAP
B8
10
10
40
ENDCHAR
STARTCHAR eight.sups
ENCODING 8312
SWIDTH 353 0
DWIDTH 3 0
BBX 3 4 1 4
BITMAP
74
44
50
E0
ENDCHAR
STARTCHAR nine.sups
ENCODING 8313
SWIDTH 353 0
DWIDTH 3 0
BBX 3 4 1 4
BITMAP
B0
94
B4
E0
ENDCHAR
STARTCHAR parenleft.sups
ENCODING 8317
SWIDTH 227 0
DWIDTH 2 0
BBX 2 5 1 3
BITMAP
10
40
80
80
40
ENDCHAR
STARTCHAR parenright.sups
ENCODING 8318
SWIDTH 226 0
DWIDTH 2 0
BBX 2 5 0 3
BITMAP
10
10
10
20
50
ENDCHAR
STARTCHAR n.sups
ENCODING 8319
SWIDTH 355 0
DWIDTH 3 0
BBX 3 4 0 2
BITMAP
2C
64
54
44
ENDCHAR
STARTCHAR zero.subs
ENCODING 8320
SWIDTH 357 0
DWIDTH 3 0
BBX 3 4 0 -2
BITMAP
74
88
54
A0
ENDCHAR
STARTCHAR one.subs
ENCODING 8321
SWIDTH 356 0
DWIDTH 3 0
BBX 2 4 0 -2
BITMAP
60
20
20
10
ENDCHAR
STARTCHAR two.subs
ENCODING 8322
SWIDTH 353 0
DWIDTH 3 0
BBX 3 4 0 -2
BITMAP
74
54
00
B0
ENDCHAR
STARTCHAR three.subs
ENCODING 8323
SWIDTH 351 0
DWIDTH 3 0
BBX 3 4 0 -2
BITMAP
74
14
70
B0
ENDCHAR
STARTCHAR four.subs
ENCODING 8324
SWIDTH 354 0
DWIDTH 3 0
BBX 3 4 0 -2
BITMAP
24
60
F4
10
ENDCHAR
STARTCHAR five.subs
ENCODING 8325
SWIDTH 351 0
DWIDTH 3 0
BBX 3 4 0 -2
BITMAP
78
B0
54
A0
ENDCHAR
STARTCHAR six.subs
ENCODING 8326
SWIDTH 353 0
DWIDTH 3 0
BBX 3 4 0 -2
BITMAP
74
80
F0
B0
ENDCHAR
STARTCHAR seven.subs
ENCODING 8327
SWIDTH 353 0
DWIDTH 3 0
BBX 3 4 0 -2
BITMAP
B8
10
10
40
ENDCHAR
STARTCHAR eight.subs
ENCODING 8328
SWIDTH 353 0
DWIDTH 3 0
BBX 3 4 0 -2
BITMAP
74
44
50
E0
ENDCHAR
STARTCHAR nine.subs
ENCODING 8329
SWIDTH 353 0
DWIDTH 3 0
BBX 3 4 0 -2
BITMAP
70
94
B4
E0
ENDCHAR
STARTCHAR parenleft.subs
ENCODING 8333
SWIDTH 227 0
DWIDTH 2 0
BBX 2 5 0 -3
BITMAP
10
40
80
80
40
ENDCHAR
STARTCHAR parenright.subs
ENCODING 8334
SWIDTH 226 0
DWIDTH 2 0
BBX 2 5 -1 -3
BITMAP
10
10
10
20
50
ENDCHAR
STARTCHAR uni0259.sups
ENCODING 8340
SWIDTH 320 0
DWIDTH 3 0
BBX 3 3 0 3
BITMAP
28
7C
74
ENDCHAR
STARTCHAR colonmonetary
ENCODING 8353
SWIDTH 480 0
DWIDTH 4 0
BBX 5 8 0 -1
BITMAP
0140
0B40
2500
5500
5400
6500
3D00
1000
ENDCHAR
STARTCHAR lira
ENCODING 8356
SWIDTH 480 0
DWIDTH 4 0
BBX 4 6 0 0
BITMAP
1F
25
7D
7D
20
BE
ENDCHAR
STARTCHAR uni20A6
ENCODING 8358
SWIDTH 480 0
DWIDTH 4 0
BBX 5 6 0 0
BITMAP
2500
2600
BF40
FF00
5900
8900
ENDCHAR
STARTCHAR peseta
ENCODING 8359
SWIDTH 480 0
DWIDTH 4 0
BBX 5 6 0 0
BITMAP
2E00
BF80
2600
7900
5000
8000
ENDCHAR
STARTCHAR dong
ENCODING 8363
SWIDTH 480 0
DWIDTH 4 0
BBX 5 7 0 0
BITMAP
0140
0B80
1E00
2200
5600
3900
BD00
ENDCHAR
STARTCHAR Euro
ENCODING 8364
SWIDTH 480 0
DWIDTH 4 0
BBX 5 6 0 0
BITMAP
0B40
2440
BF00
BD00
6100
2D00
ENDCHAR
STARTCHAR uni20B1
ENCODING 8369
SWIDTH 480 0
DWIDTH 4 0
BBX 5 6 0 0
BITMAP
2E00
7F80
BF40
3D00
5000
8000
ENDCHAR
STARTCHAR uni20B2
ENCODING 8370
SWIDTH 480 0
DWIDTH 4 0
BBX 5 8 0 -1
BITMAP
0200
1140
1000
5000
8700
5200
3D00
1400
ENDCHAR
STARTCHAR uni20B5
ENCODING 8373
SWIDTH 480 0
DWIDTH 4 0
BBX 5 8 0 -1
BITMAP
0600
1E40
2500
5400
5400
5500
2D00
0400
ENDCHAR
STARTCHAR uni20B9
ENCODING 8377
SWIDTH 480 0
DWIDTH 4 0
BBX 5 6 0 0
BITMAP
2F80
0600
3F40
7D00
1400
0800
ENDCHAR
STARTCHAR uni20BA
ENCODING 8378
SWIDTH 480 0
DWIDTH 4 0
BBX 4 6 0 0
BITMAP
14
19
25
61
26
78
ENDCHAR
STARTCHAR uni2113
ENCODING 8467
SWIDTH 394 0
DWIDTH 4 0
BBX 4 6 0 0
BITMAP
0E
26
24
20
A0
38
ENDCHAR
STARTCHAR uni2117
ENCODING 8471
SWIDTH 665 0
DWIDTH 6 0
BBX 6 6 0 0
BITMAP
0B80
2460
4B50
4F50
5490
2F40
ENDCHAR
STARTCHAR uni2120
ENCODING 8480
SWIDTH 601 0
DWIDTH 5 0
BBX 6 3 0 3
BITMAP
3660
0290
7510
ENDCHAR
STARTCHAR trademark
ENCODING 8482
SWIDTH 611 0
DWIDTH 6 0
BBX 6 4 0 2
BITMAP
7E70
1290
1110
1000
ENDCHAR
STARTCHAR uni2126
ENCODING 8486
SWIDTH 658 0
DWIDTH 6 0
BBX 6 6 0 0
BITMAP
0B80
2460
6020
5050
5040
F2C0
ENDCHAR
STARTCHAR estimated
ENCODING 8494
SWIDTH 800 0
DWIDTH 7 0
BBX 7 6 0 0
BITMAP
0BD0
2424
6018
7FFC
2000
0BD0
ENDCHAR
STARTCHAR onethird
ENCODING 8531
SWIDTH 778 0
DWIDTH 7 0
BBX 6 6 1 0
BITMAP
9040
5100
45D0
5450
11C0
42C0
ENDCHAR
STARTCHAR twothirds
ENCODING 8532
SWIDTH 795 0
DWIDTH 7 0
BBX 7 6 0 0
BITMAP
2C10
1440
0074
7D08
0474
14B4
ENDCHAR
STARTCHAR oneeighth
ENCODING 8539
SWIDTH 773 0
DWIDTH 7 0
BBX 6 6 1 0
BITMAP
9040
5100
45D0
5510
1140
43C0
ENDCHAR
STARTCHAR threeeighths
ENCODING 8540
SWIDTH 787 0
DWIDTH 7 0
BBX 7 6 0 0
BITMAP
2810
0840
69B4
3944
0454
10B0
ENDCHAR
STARTCHAR fiveeighths
ENCODING 8541
SWIDTH 787 0
DWIDTH 7 0
BBX 7 6 0 0
BITMAP
2D10
3840
49B4
3944
0454
10B0
ENDCHAR
STARTCHAR seveneighths
ENCODING 8542
SWIDTH 770 0
DWIDTH 7 0
BBX 6 6 1 0
BITMAP
F540
1100
45D0
9110
1140
43C0
ENDCHAR
STARTCHAR uni2190
ENCODING 8592
SWIDTH 593 0
DWIDTH 5 0
BBX 6 5 0 0
BITMAP
0400
1000
BFD0
1000
0400
ENDCHAR
STARTCHAR arrowup
ENCODING 8593
SWIDTH 593 0
DWIDTH 5 0
BBX 5 5 0 0
BITMAP
0900
2940
4840
0800
0800
ENDCHAR
STARTCHAR uni2192
ENCODING 8594
SWIDTH 593 0
DWIDTH 5 0
BBX 5 5 0 0
BITMAP
0500
0140
BFC0
0140
0500
ENDCHAR
STARTCHAR arrowdown
ENCODING 8595
SWIDTH 593 0
DWIDTH 5 0
BBX 5 5 0 0
BITMAP
0800
0800
4840
2940
0900
ENDCHAR
STARTCHAR partialdiff
ENCODING 8706
SWIDTH 519 0
DWIDTH 5 0
BBX 5 6 0 0
BITMAP
0E00
0140
2D40
9240
8600
7800
ENDCHAR
STARTCHAR uni2206
ENCODING 8710
SWIDTH 565 0
DWIDTH 5 0
BBX 5 6 0 0
BITMAP
0600
0A00
1600
2200
4140
FF40
ENDCHAR
STARTCHAR product
ENCODING 8719
SWIDTH 646 0
DWIDTH 6 0
BBX 4 7 1 -1
BITMAP
FF
82
82
82
82
82
82
ENDCHAR
STARTCHAR summation
ENCODING 8721
SWIDTH 485 0
DWIDTH 4 0
BBX 5 7 0 -1
BITMAP
BF40
1000
1400
0800
1400
1000
BF40
ENDCHAR
STARTCHAR minus
ENCODING 8722
SWIDTH 480 0
DWIDTH 4 0
BBX 4 1 0 2
BITMAP
BF
ENDCHAR
STARTCHAR uni2215
ENCODING 8725
SWIDTH 84 0
DWIDTH 1 0
BBX 5 6 -2 0
BITMAP
0040
0100
0400
0400
1000
4000
ENDCHAR
STARTCHAR uni2219
ENCODING 8729
SWIDTH 244 0
DWIDTH 2 0
BBX 2 1 0 3
BITMAP
60
ENDCHAR
STARTCHAR radical
ENCODING 8730
SWIDTH 537 0
DWIDTH 5 0
BBX 5 9 1 -1
BITMAP
0040
0040
0100
0200
4500
8800
5400
6000
6000
ENDCHAR
STARTCHAR infinity
ENCODING 8734
SWIDTH 752 0
DWIDTH 7 0
BBX 7 4 0 1
BITMAP
00A0
7914
8B14
79E0
ENDCHAR
STARTCHAR integral
ENCODING 8747
SWIDTH 321 0
DWIDTH 3 0
BBX 4 9 0 -2
BITMAP
0A
18
14
20
20
20
20
60
C0
ENDCHAR
STARTCHAR approxequal
ENCODING 8776
SWIDTH 480 0
DWIDTH 4 0
BBX 4 4 0 1
BITMAP
75
4A
75
4A
ENDCHAR
STARTCHAR notequal
ENCODING 8800
SWIDTH 480 0
DWIDTH 4 0
BBX 4 4 0 1
BITMAP
01
BF
BF
10
ENDCHAR
STARTCHAR lessequal
ENCODING 8804
SWIDTH 480 0
DWIDTH 4 0
BBX 4 5 0 0
BITMAP
01
64
69
01
BF
ENDCHAR
STARTCHAR greaterequal
ENCODING 8805
SWIDTH 480 0
DWIDTH 4 0
BBX 4 5 0 0
BITMAP
50
1A
19
50
BF
ENDCHAR
STARTCHAR uni231C
ENCODING 8988
SWIDTH 292 0
DWIDTH 3 0
BBX 3 7 0 0
BITMAP
2C
20
20
20
50
40
40
ENDCHAR
STARTCHAR uni231D
ENCODING 8989
SWIDTH 293 0
DWIDTH 3 0
BBX 2 7 1 0
BITMAP
E0
10
40
40
40
40
40
ENDCHAR
STARTCHAR uni231E
ENCODING 8990
SWIDTH 292 0
DWIDTH 3 0
BBX 2 7 0 -1
BITMAP
10
20
10
10
40
40
B0
ENDCHAR
STARTCHAR uni231F
ENCODING 8991
SWIDTH 293 0
DWIDTH 3 0
BBX 4 7 -1 -1
BITMAP
01
05
04
08
08
08
74
ENDCHAR
STARTCHAR uni25A0
ENCODING 9632
SWIDTH 895 0
DWIDTH 8 0
BBX 8 7 0 0
BITMAP
7FFE
7FFE
7FFE
7FFE
7FFE
7FFE
7FFE
ENDCHAR
STARTCHAR triagup
ENCODING 9650
SWIDTH 895 0
DWIDTH 8 0
BBX 7 7 1 0
BITMAP
0100
0B00
0F40
2FC0
3FE0
BFF0
FFF8
ENDCHAR
STARTCHAR uni25B3
ENCODING 9651
SWIDTH 895 0
DWIDTH 8 0
BBX 7 7 1 -1
BITMAP
0500
0500
1040
1040
5010
4010
FFF8
ENDCHAR
STARTCHAR uni25B6
ENCODING 9654
SWIDTH 895 0
DWIDTH 8 0
BBX 8 7 0 0
BITMAP
6000
7E00
7FE4
7FFD
7FE4
7E00
6000
ENDCHAR
STARTCHAR uni25B7
ENCODING 9655
SWIDTH 895 0
DWIDTH 8 0
BBX 8 7 0 0
BITMAP
6000
5600
4064
4009
4064
5600
6000
ENDCHAR
STARTCHAR triagdn
ENCODING 9660
SWIDTH 895 0
DWIDTH 8 0
BBX 7 7 1 -1
BITMAP
FFF8
BFF0
3FE0
2FC0
0F40
0B00
0100
ENDCHAR
STARTCHAR uni25BD
ENCODING 9661
SWIDTH 895 0
DWIDTH 8 0
BBX 7 7 1 0
BITMAP
FFF8
4010
5010
1040
1040
0500
0500
ENDCHAR
STARTCHAR uni25C0
ENCODING 9664
SWIDTH 895 0
DWIDTH 8 0
BBX 8 7 0 0
BITMAP
0006
007E
0BFE
7FFE
0BFE
007E
0006
ENDCHAR
STARTCHAR uni25C1
ENCODING 9665
SWIDTH 895 0
DWIDTH 8 0
BBX 8 7 0 0
BITMAP
0006
0066
0602
6402
0602
0066
0006
ENDCHAR
STARTCHAR uni25C6
ENCODING 9670
SWIDTH 895 0
DWIDTH 8 0
BBX 8 8 0 -1
BITMAP
0180
07E0
1FF8
7FFE
7FFE
1FF8
07E0
0180
ENDCHAR
STARTCHAR uni25C9
ENCODING 9673
SWIDTH 895 0
DWIDTH 8 0
BBX 8 8 0 -1
BITMAP
0BE0
2958
5BF6
8FF6
8FF6
57E6
2558
0BE4
ENDCHAR
STARTCHAR lozenge
ENCODING 9674
SWIDTH 499 0
DWIDTH 4 0
BBX 3 6 1 0
BITMAP
70
94
88
88
94
70
ENDCHAR
STARTCHAR uni2610
ENCODING 9744
SWIDTH 765 0
DWIDTH 7 0
BBX 7 6 0 0
BITMAP
7FF4
4014
4014
4014
4014
7FF0
ENDCHAR
STARTCHAR uni2611
ENCODING 9745
SWIDTH 766 0
DWIDTH 7 0
BBX 7 7 0 0
BITMAP
0008
7FF4
4064
5154
4914
4414
7FF0
ENDCHAR
STARTCHAR uni266A
ENCODING 9834
SWIDTH 480 0
DWIDTH 4 0
BBX 4 7 0 0
BITMAP
04
0A
05
05
04
78
B4
ENDCHAR
STARTCHAR uni2713
ENCODING 10003
SWIDTH 542 0
DWIDTH 5 0
BBX 6 6 0 0
BITMAP
0050
0140
0200
4800
9400
6000
ENDCHAR
STARTCHAR uni2752
ENCODING 10066
SWIDTH 895 0
DWIDTH 8 0
BBX 8 8 0 -1
BITMAP
7FFE
4002
4002
4002
4002
4002
4002
7FFE
ENDCHAR
STARTCHAR uni2E22
ENCODING 11810
SWIDTH 292 0
DWIDTH 3 0
BBX 2 5 1 2
BITMAP
70
80
80
80
40
ENDCHAR
STARTCHAR uni2E23
ENCODING 11811
SWIDTH 293 0
DWIDTH 3 0
BBX 2 5 1 2
BITMAP
E0
10
50
40
40
ENDCHAR
STARTCHAR uni2E24
ENCODING 11812
SWIDTH 292 0
DWIDTH 3 0
BBX 2 4 0 -2
BITMAP
50
40
40
E0
ENDCHAR
STARTCHAR uni2E25
ENCODING 11813
SWIDTH 293 0
DWIDTH 3 0
BBX 3 5 -1 -2
BITMAP
04
08
08
14
74
ENDCHAR
STARTCHAR f_f
ENCODING 64256
SWIDTH 552 0
DWIDTH 5 0
BBX 6 6 0 0
BITMAP
1DB0
2580
7FD0
2200
5200
5200
ENDCHAR
STARTCHAR fi
ENCODING 64257
SWIDTH 519 0
DWIDTH 5 0
BBX 5 6 0 0
BITMAP
1D80
2400
7940
2200
5200
5200
ENDCHAR
STARTCHAR fl
ENCODING 64258
SWIDTH 530 0
DWIDTH 5 0
BBX 5 6 0 0
BITMAP
1D80
2540
7940
2200
5200
5300
ENDCHAR
STARTCHAR uniFEFF
ENCODING 65279
SWIDTH 0 0
DWIDTH 0 0
BBX 1 1 0 0
BITMAP
00
ENDCHAR
STARTCHAR .notdef
ENCODING -1
SWIDTH 628 0
DWIDTH 6 0
BBX 6 6 0 0
BITMAP
2FD0
2450
2A40
5A80
5180
BF80
ENDCHAR
STARTCHAR uni00470303
ENCODING -1
SWIDTH 588 0
DWIDTH 5 0
BBX 6 8 0 0
BITMAP
0750
05C0
0B80
2440
5000
5380
6080
2F40
ENDCHAR
STARTCHAR uni00670303
ENCODING -1
SWIDTH 531 0
DWIDTH 5 0
BBX 5 9 0 -2
BITMAP
1D80
1340
0000
2E40
9700
7B00
0200
4900
7800
ENDCHAR
STARTCHAR iogonek.d
ENCODING -1
SWIDTH 237 0
DWIDTH 2 0
BBX 3 6 -1 -2
BITMAP
08
18
14
20
10
60
ENDCHAR
STARTCHAR f_t
ENCODING -1
SWIDTH 561 0
DWIDTH 5 0
BBX 6 6 0 0
BITMAP
1D00
2540
7FD0
2200
5200
5340
ENDCHAR
STARTCHAR I.a
ENCODING -1
SWIDTH 324 0
DWIDTH 3 0
BBX 4 6 0 0
BITMAP
3D
14
20
20
20
F0
ENDCHAR
STARTCHAR Igrave.a
ENCODING -1
SWIDTH 324 0
DWIDTH 3 0
BBX 4 8 0 0
BITMAP
20
08
3D
14
20
20
20
F0
ENDCHAR
STARTCHAR Iacute.a
ENCODING -1
SWIDTH 324 0
DWIDTH 3 0
BBX 4 8 0 0
BITMAP
05
00
3D
14
20
20
20
F0
ENDCHAR
STARTCHAR Icircumflex.a
ENCODING -1
SWIDTH 324 0
DWIDTH 3 0
BBX 4 8 0 0
BITMAP
1C
25
3D
14
20
20
20
F0
ENDCHAR
STARTCHAR Itilde.a
ENCODING -1
SWIDTH 324 0
DWIDTH 3 0
BBX 4 8 0 0
BITMAP
36
59
3D
14
20
20
20
F0
ENDCHAR
STARTCHAR Idieresis.a
ENCODING -1
SWIDTH 324 0
DWIDTH 3 0
BBX 4 7 0 0
BITMAP
25
3D
14
20
20
20
F0
ENDCHAR
STARTCHAR Imacron.a
ENCODING -1
SWIDTH 324 0
DWIDTH 3 0
BBX 4 7 0 0
BITMAP
3D
3D
14
20
20
20
F0
ENDCHAR
STARTCHAR Idotaccent.a
ENCODING -1
SWIDTH 324 0
DWIDTH 3 0
BBX 4 7 0 0
BITMAP
08
3D
14
20
20
20
F0
ENDCHAR
STARTCHAR uni01CF.a
ENCODING -1
SWIDTH 324 0
DWIDTH 3 0
BBX 4 8 0 0
BITMAP
15
1C
3D
14
20
20
20
F0
ENDCHAR
STARTCHAR uni1EC8.a
ENCODING -1
SWIDTH 324 0
DWIDTH 3 0
BBX 4 8 0 0
BITMAP
18
08
3D
14
20
20
20
F0
ENDCHAR
STARTCHAR uni1ECA.a
ENCODING -1
SWIDTH 324 0
DWIDTH 3 0
BBX 4 8 0 -2
BITMAP
3D
14
20
20
20
F0
00
80
ENDCHAR
STARTCHAR Iogonek.a
ENCODING -1
SWIDTH 324 0
DWIDTH 3 0
BBX 4 8 0 -2
BITMAP
3D
14
20
20
20
F0
40
D0
ENDCHAR
STARTCHAR a.a
ENCODING -1
SWIDTH 492 0
DWIDTH 4 0
BBX 4 4 0 0
BITMAP
2E
12
6E
B9
ENDCHAR
STARTCHAR agrave.a
ENCODING -1
SWIDTH 492 0
DWIDTH 4 0
BBX 4 7 0 0
BITMAP
08
05
00
2E
12
6E
B9
ENDCHAR
STARTCHAR aacute.a
ENCODING -1
SWIDTH 492 0
DWIDTH 4 0
BBX 4 7 0 0
BITMAP
02
05
00
2E
12
6E
B9
ENDCHAR
STARTCHAR acircumflex.a
ENCODING -1
SWIDTH 492 0
DWIDTH 4 0
BBX 4 7 0 0
BITMAP
0A
16
00
2E
12
6E
B9
ENDCHAR
STARTCHAR atilde.a
ENCODING -1
SWIDTH 492 0
DWIDTH 4 0
BBX 5 7 0 0
BITMAP
1D40
1300
0000
2E00
1200
6E00
B900
ENDCHAR
STARTCHAR adieresis.a
ENCODING -1
SWIDTH 492 0
DWIDTH 4 0
BBX 4 6 0 0
BITMAP
16
00
2E
12
6E
B9
ENDCHAR
STARTCHAR amacron.a
ENCODING -1
SWIDTH 492 0
DWIDTH 4 0
BBX 4 6 0 0
BITMAP
1F
00
2E
12
6E
B9
ENDCHAR
STARTCHAR abreve.a
ENCODING -1
SWIDTH 492 0
DWIDTH 4 0
BBX 5 7 0 0
BITMAP
1540
0E00
0000
2E00
1200
6E00
B900
ENDCHAR
STARTCHAR aring.a
ENCODING -1
SWIDTH 492 0
DWIDTH 4 0
BBX 4 7 0 0
BITMAP
0A
0E
00
2E
12
6E
B9
ENDCHAR
STARTCHAR uni01CE.a
ENCODING -1
SWIDTH 492 0
DWIDTH 4 0
BBX 4 7 0 0
BITMAP
16
0D
00
2E
12
6E
B9
ENDCHAR
STARTCHAR uni1EA1.a
ENCODING -1
SWIDTH 492 0
DWIDTH 4 0
BBX 4 6 0 -2
BITMAP
2E
12
6E
B9
00
20
ENDCHAR
STARTCHAR uni1EA3.a
ENCODING -1
SWIDTH 492 0
DWIDTH 4 0
BBX 4 7 0 0
BITMAP
05
06
00
2E
12
6E
B9
ENDCHAR
STARTCHAR uni1EA5.a
ENCODING -1
SWIDTH 492 0
DWIDTH 4 0
BBX 5 7 0 0
BITMAP
0A80
0500
0000
2E00
1200
6E00
B900
ENDCHAR
STARTCHAR uni1EA7.a
ENCODING -1
SWIDTH 492 0
DWIDTH 4 0
BBX 4 7 0 0
BITMAP
2A
15
00
2E
12
6E
B9
ENDCHAR
STARTCHAR uni1EA9.a
ENCODING -1
SWIDTH 492 0
DWIDTH 4 0
BBX 5 7 0 0
BITMAP
0A80
0580
0000
2E00
1200
6E00
B900
ENDCHAR
STARTCHAR uni1EAB.a
ENCODING -1
SWIDTH 492 0
DWIDTH 4 0
BBX 5 8 0 0
BITMAP
0940
0F00
0500
0000
2E00
1200
6E00
B900
ENDCHAR
STARTCHAR uni1EAD.a
ENCODING -1
SWIDTH 492 0
DWIDTH 4 0
BBX 4 9 0 -2
BITMAP
0A
16
00
2E
12
6E
B9
00
20
ENDCHAR
STARTCHAR uni1EAF.a
ENCODING -1
SWIDTH 492 0
DWIDTH 4 0
BBX 5 8 0 0
BITMAP
0100
1640
0E00
0000
2E00
1200
6E00
B900
ENDCHAR
STARTCHAR uni1EB1.a
ENCODING -1
SWIDTH 492 0
DWIDTH 4 0
BBX 5 8 0 0
BITMAP
0400
1540
0E00
0000
2E00
1200
6E00
B900
ENDCHAR
STARTCHAR uni1EB3.a
ENCODING -1
SWIDTH 492 0
DWIDTH 4 0
BBX 5 8 0 0
BITMAP
0500
1640
0E00
0000
2E00
1200
6E00
B900
ENDCHAR
STARTCHAR uni1EB5.a
ENCODING -1
SWIDTH 492 0
DWIDTH 4 0
BBX 5 10 0 0
BITMAP
0940
1700
0000
1500
0E00
0000
2E00
1200
6E00
B900
ENDCHAR
STARTCHAR uni1EB7.a
ENCODING -1
SWIDTH 492 0
DWIDTH 4 0
BBX 5 9 0 -2
BITMAP
1540
0E00
0000
2E00
1200
6E00
B900
0000
2000
ENDCHAR
STARTCHAR aogonek.a
ENCODING -1
SWIDTH 492 0
DWIDTH 4 0
BBX 4 6 0 -2
BITMAP
2E
12
6E
B9
04
0C
ENDCHAR
STARTCHAR g.a
ENCODING -1
SWIDTH 477 0
DWIDTH 4 0
BBX 5 6 0 -2
BITMAP
2F80
6200
3D00
5000
7D00
FD00
ENDCHAR
STARTCHAR gcircumflex.a
ENCODING -1
SWIDTH 477 0
DWIDTH 4 0
BBX 5 9 0 -2
BITMAP
0900
1600
0000
2F80
6200
3D00
5000
7D00
FD00
ENDCHAR
STARTCHAR gbreve.a
ENCODING -1
SWIDTH 477 0
DWIDTH 4 0
BBX 5 9 0 -2
BITMAP
1100
1D00
0000
2F80
6200
3D00
5000
7D00
FD00
ENDCHAR
STARTCHAR gdotaccent.a
ENCODING -1
SWIDTH 477 0
DWIDTH 4 0
BBX 5 8 0 -2
BITMAP
0800
0000
2F80
6200
3D00
5000
7D00
FD00
ENDCHAR
STARTCHAR uni0123.a
ENCODING -1
SWIDTH 477 0
DWIDTH 4 0
BBX 5 9 0 -2
BITMAP
0A00
0800
0000
2F80
6200
3D00
5000
7D00
FD00
ENDCHAR
STARTCHAR gcaron.a
ENCODING -1
SWIDTH 477 0
DWIDTH 4 0
BBX 5 9 0 -2
BITMAP
1600
0D00
0000
2F80
6200
3D00
5000
7D00
FD00
ENDCHAR
STARTCHAR uni1E21.a
ENCODING -1
SWIDTH 477 0
DWIDTH 4 0
BBX 5 8 0 -2
BITMAP
1F00
0000
2F80
6200
3D00
5000
7D00
FD00
ENDCHAR
STARTCHAR uni00670303.a
ENCODING -1
SWIDTH 477 0
DWIDTH 4 0
BBX 5 9 0 -2
BITMAP
2940
1700
0000
2F80
6200
3D00
5000
7D00
FD00
ENDCHAR
STARTCHAR l.a
ENCODING -1
SWIDTH 238 0
DWIDTH 2 0
BBX 2 6 0 0
BITMAP
20
20
20
60
50
80
ENDCHAR
STARTCHAR lacute.a
ENCODING -1
SWIDTH 238 0
DWIDTH 2 0
BBX 3 8 0 0
BITMAP
04
00
20
20
20
60
50
80
ENDCHAR
STARTCHAR lcaron.a
ENCODING -1
SWIDTH 242 0
DWIDTH 2 0
BBX 3 7 0 0
BITMAP
04
28
20
20
60
50
80
ENDCHAR
STARTCHAR ldot.a
ENCODING -1
SWIDTH 331 0
DWIDTH 3 0
BBX 3 6 0 0
BITMAP
20
20
28
60
50
80
ENDCHAR
STARTCHAR uni013C.a
ENCODING -1
SWIDTH 238 0
DWIDTH 2 0
BBX 3 8 -1 -2
BITMAP
08
08
08
18
14
20
20
A0
ENDCHAR
STARTCHAR uni1E37.a
ENCODING -1
SWIDTH 238 0
DWIDTH 2 0
BBX 2 8 0 -2
BITMAP
20
20
20
60
50
80
00
80
ENDCHAR
STARTCHAR uni1E39.a
ENCODING -1
SWIDTH 238 0
DWIDTH 2 0
BBX 4 10 0 -2
BITMAP
3D
00
20
20
20
60
50
80
00
80
ENDCHAR
STARTCHAR uni1E3B.a
ENCODING -1
SWIDTH 238 0
DWIDTH 2 0
BBX 3 8 -1 -2
BITMAP
08
08
08
18
14
20
00
B8
ENDCHAR
STARTCHAR lslash.a
ENCODING -1
SWIDTH 246 0
DWIDTH 2 0
BBX 3 6 0 0
BITMAP
24
24
74
A0
50
80
ENDCHAR
STARTCHAR zero.pnum
ENCODING -1
SWIDTH 504 0
DWIDTH 5 0
BBX 5 6 0 0
BITMAP
1E00
2240
5140
8200
9600
7800
ENDCHAR
STARTCHAR one.pnum
ENCODING -1
SWIDTH 340 0
DWIDTH 3 0
BBX 2 6 1 0
BITMAP
60
D0
50
40
80
80
ENDCHAR
STARTCHAR two.pnum
ENCODING -1
SWIDTH 467 0
DWIDTH 4 0
BBX 4 6 0 0
BITMAP
1E
12
01
08
60
FD
ENDCHAR
STARTCHAR three.pnum
ENCODING -1
SWIDTH 461 0
DWIDTH 4 0
BBX 4 6 0 0
BITMAP
1E
12
2D
06
46
78
ENDCHAR
STARTCHAR four.pnum
ENCODING -1
SWIDTH 485 0
DWIDTH 4 0
BBX 4 6 0 0
BITMAP
03
0A
26
55
BF
08
ENDCHAR
STARTCHAR five.pnum
ENCODING -1
SWIDTH 461 0
DWIDTH 4 0
BBX 4 6 0 0
BITMAP
2F
20
3D
02
46
78
ENDCHAR
STARTCHAR six.pnum
ENCODING -1
SWIDTH 480 0
DWIDTH 4 0
BBX 4 6 0 0
BITMAP
1F
21
6D
52
52
3D
ENDCHAR
STARTCHAR seven.pnum
ENCODING -1
SWIDTH 456 0
DWIDTH 4 0
BBX 4 6 1 0
BITMAP
FD
08
20
50
80
80
ENDCHAR
STARTCHAR eight.pnum
ENCODING -1
SWIDTH 480 0
DWIDTH 4 0
BBX 5 6 0 0
BITMAP
1E00
2240
3E00
9500
8200
7D00
ENDCHAR
STARTCHAR nine.pnum
ENCODING -1
SWIDTH 480 0
DWIDTH 4 0
BBX 4 6 0 0
BITMAP
2E
62
52
3E
45
78
ENDCHAR
STARTCHAR zero.tnum
ENCODING -1
SWIDTH 480 0
DWIDTH 4 0
BBX 4 5 0 0
BITMAP
1E
62
82
96
78
ENDCHAR
STARTCHAR one.tnum
ENCODING -1
SWIDTH 480 0
DWIDTH 4 0
BBX 4 5 0 0
BITMAP
08
2C
04
14
BD
ENDCHAR
STARTCHAR two.tnum
ENCODING -1
SWIDTH 480 0
DWIDTH 4 0
BBX 4 5 0 0
BITMAP
2E
12
05
10
FE
ENDCHAR
STARTCHAR three.tnum
ENCODING -1
SWIDTH 480 0
DWIDTH 4 0
BBX 4 6 0 -1
BITMAP
2E
12
2D
06
46
78
ENDCHAR
STARTCHAR four.tnum
ENCODING -1
SWIDTH 480 0
DWIDTH 4 0
BBX 4 6 0 -1
BITMAP
06
0A
25
55
FF
08
ENDCHAR
STARTCHAR five.tnum
ENCODING -1
SWIDTH 480 0
DWIDTH 4 0
BBX 4 6 0 -1
BITMAP
2F
20
7D
06
45
78
ENDCHAR
STARTCHAR six.tnum
ENCODING -1
SWIDTH 480 0
DWIDTH 4 0
BBX 4 6 0 0
BITMAP
1F
21
6D
52
52
3D
ENDCHAR
STARTCHAR seven.tnum
ENCODING -1
SWIDTH 480 0
DWIDTH 4 0
BBX 4 7 1 -2
BITMAP
FD
08
20
20
80
80
40
ENDCHAR
STARTCHAR eight.tnum
ENCODING -1
SWIDTH 480 0
DWIDTH 4 0
BBX 5 6 0 0
BITMAP
1E00
2240
3E00
9500
8200
7D00
ENDCHAR
STARTCHAR nine.tnum
ENCODING -1
SWIDTH 480 0
DWIDTH 4 0
BBX 4 6 0 -1
BITMAP
2D
52
92
7A
49
B8
ENDCHAR
STARTCHAR zero.onum
ENCODING -1
SWIDTH 480 0
DWIDTH 4 0
BBX 4 5 0 0
BITMAP
1E
62
82
96
78
ENDCHAR
STARTCHAR one.onum
ENCODING -1
SWIDTH 342 0
DWIDTH 3 0
BBX 3 5 0 0
BITMAP
14
74
10
20
20
ENDCHAR
STARTCHAR two.onum
ENCODING -1
SWIDTH 462 0
DWIDTH 4 0
BBX 4 5 0 0
BITMAP
2D
12
04
10
FD
ENDCHAR
STARTCHAR three.onum
ENCODING -1
SWIDTH 480 0
DWIDTH 4 0
BBX 4 6 0 -1
BITMAP
2E
12
2D
06
46
78
ENDCHAR
STARTCHAR four.onum
ENCODING -1
SWIDTH 480 0
DWIDTH 4 0
BBX 4 6 0 -1
BITMAP
06
0A
25
55
FF
08
ENDCHAR
STARTCHAR five.onum
ENCODING -1
SWIDTH 480 0
DWIDTH 4 0
BBX 4 6 0 -1
BITMAP
2F
20
7D
06
45
78
ENDCHAR
STARTCHAR six.onum
ENCODING -1
SWIDTH 480 0
DWIDTH 4 0
BBX 4 6 0 0
BITMAP
1F
21
6D
52
52
3D
ENDCHAR
STARTCHAR seven.onum
ENCODING -1
SWIDTH 456 0
DWIDTH 4 0
BBX 5 6 0 -1
BITMAP
7F40
0200
0800
1400
2000
2000
ENDCHAR
STARTCHAR eight.onum
ENCODING -1
SWIDTH 480 0
DWIDTH 4 0
BBX 5 6 0 0
BITMAP
1E00
2240
3E00
9500
8200
7D00
ENDCHAR
STARTCHAR nine.onum
ENCODING -1
SWIDTH 480 0
DWIDTH 4 0
BBX 4 6 0 -1
BITMAP
2D
52
92
7A
49
B8
ENDCHAR
STARTCHAR at.case
ENCODING -1
SWIDTH 802 0
DWIDTH 7 0
BBX 6 6 1 0
BITMAP
1B80
6E60
9510
5620
9ED0
7D00
ENDCHAR
STARTCHAR period.sups
ENCODING -1
SWIDTH 170 0
DWIDTH 2 0
BBX 2 1 0 4
BITMAP
50
ENDCHAR
STARTCHAR comma.sups
ENCODING -1
SWIDTH 170 0
DWIDTH 2 0
BBX 2 2 0 3
BITMAP
50
40
ENDCHAR
STARTCHAR period.subs
ENCODING -1
SWIDTH 170 0
DWIDTH 2 0
BBX 2 1 -1 -2
BITMAP
50
ENDCHAR
STARTCHAR comma.subs
ENCODING -1
SWIDTH 170 0
DWIDTH 2 0
BBX 2 2 -1 -3
BITMAP
50
40
ENDCHAR
STARTCHAR zero.dnom
ENCODING -1
SWIDTH 357 0
DWIDTH 3 0
BBX 3 4 0 0
BITMAP
78
88
88
B4
ENDCHAR
STARTCHAR one.dnom
ENCODING -1
SWIDTH 356 0
DWIDTH 3 0
BBX 2 4 1 0
BITMAP
90
40
80
40
ENDCHAR
STARTCHAR two.dnom
ENCODING -1
SWIDTH 353 0
DWIDTH 3 0
BBX 3 4 0 0
BITMAP
34
04
00
B4
ENDCHAR
STARTCHAR three.dnom
ENCODING -1
SWIDTH 351 0
DWIDTH 3 0
BBX 3 4 0 0
BITMAP
34
08
74
74
ENDCHAR
STARTCHAR four.dnom
ENCODING -1
SWIDTH 354 0
DWIDTH 3 0
BBX 3 4 0 0
BITMAP
18
14
B8
10
ENDCHAR
STARTCHAR five.dnom
ENCODING -1
SWIDTH 351 0
DWIDTH 3 0
BBX 3 4 0 0
BITMAP
38
74
58
74
ENDCHAR
STARTCHAR six.dnom
ENCODING -1
SWIDTH 353 0
DWIDTH 3 0
BBX 3 4 0 0
BITMAP
38
90
B4
74
ENDCHAR
STARTCHAR seven.dnom
ENCODING -1
SWIDTH 353 0
DWIDTH 3 0
BBX 3 4 0 0
BITMAP
7C
04
20
10
ENDCHAR
STARTCHAR eight.dnom
ENCODING -1
SWIDTH 353 0
DWIDTH 3 0
BBX 3 4 0 0
BITMAP
78
44
44
B4
ENDCHAR
STARTCHAR nine.dnom
ENCODING -1
SWIDTH 353 0
DWIDTH 3 0
BBX 3 4 0 0
BITMAP
74
88
78
A0
ENDCHAR
STARTCHAR parenleft.dnom
ENCODING -1
SWIDTH 227 0
DWIDTH 2 0
BBX 2 5 0 -1
BITMAP
10
50
80
80
40
ENDCHAR
STARTCHAR parenright.dnom
ENCODING -1
SWIDTH 226 0
DWIDTH 2 0
BBX 2 5 0 -1
BITMAP
50
10
10
40
40
ENDCHAR
STARTCHAR period.dnom
ENCODING -1
SWIDTH 170 0
DWIDTH 2 0
BBX 1 1 0 0
BITMAP
80
ENDCHAR
STARTCHAR comma.dnom
ENCODING -1
SWIDTH 170 0
DWIDTH 2 0
BBX 1 2 0 -1
BITMAP
80
40
ENDCHAR
STARTCHAR zero.numr
ENCODING -1
SWIDTH 357 0
DWIDTH 3 0
BBX 4 4 0 2
BITMAP
2C
55
58
38
ENDCHAR
STARTCHAR one.numr
ENCODING -1
SWIDTH 356 0
DWIDTH 3 0
BBX 2 4 1 2
BITMAP
60
10
50
40
ENDCHAR
STARTCHAR two.numr
ENCODING -1
SWIDTH 353 0
DWIDTH 3 0
BBX 3 4 0 2
BITMAP
2C
14
00
78
ENDCHAR
STARTCHAR three.numr
ENCODING -1
SWIDTH 351 0
DWIDTH 3 0
BBX 3 4 0 2
BITMAP
2C
08
68
38
ENDCHAR
STARTCHAR four.numr
ENCODING -1
SWIDTH 354 0
DWIDTH 3 0
BBX 3 4 0 2
BITMAP
08
18
7C
04
ENDCHAR
STARTCHAR five.numr
ENCODING -1
SWIDTH 351 0
DWIDTH 3 0
BBX 4 4 0 2
BITMAP
2D
38
58
38
ENDCHAR
STARTCHAR six.numr
ENCODING -1
SWIDTH 353 0
DWIDTH 3 0
BBX 3 4 0 2
BITMAP
2C
20
78
38
ENDCHAR
STARTCHAR seven.numr
ENCODING -1
SWIDTH 353 0
DWIDTH 3 0
BBX 3 4 1 2
BITMAP
F4
10
50
80
ENDCHAR
STARTCHAR eight.numr
ENCODING -1
SWIDTH 353 0
DWIDTH 3 0
BBX 3 4 0 2
BITMAP
2C
14
54
78
ENDCHAR
STARTCHAR nine.numr
ENCODING -1
SWIDTH 353 0
DWIDTH 3 0
BBX 3 4 0 2
BITMAP
28
18
3C
74
ENDCHAR
STARTCHAR parenleft.numr
ENCODING -1
SWIDTH 227 0
DWIDTH 2 0
BBX 3 5 0 1
BITMAP
14
20
10
50
10
ENDCHAR
STARTCHAR parenright.numr
ENCODING -1
SWIDTH 226 0
DWIDTH 2 0
BBX 2 5 0 1
BITMAP
10
10
20
10
40
ENDCHAR
STARTCHAR period.numr
ENCODING -1
SWIDTH 170 0
DWIDTH 2 0
BBX 1 1 0 2
BITMAP
40
ENDCHAR
STARTCHAR comma.numr
ENCODING -1
SWIDTH 170 0
DWIDTH 2 0
BBX 2 2 0 1
BITMAP
50
40
ENDCHAR
STARTCHAR ordfeminine.a
ENCODING -1
SWIDTH 333 0
DWIDTH 3 0
BBX 3 3 0 3
BITMAP
7C
98
60
ENDCHAR
STARTCHAR q.sups
ENCODING -1
SWIDTH 356 0
DWIDTH 3 0
BBX 3 4 0 2
BITMAP
28
58
78
04
ENDCHAR
STARTCHAR egrave.sups
ENCODING -1
SWIDTH 323 0
DWIDTH 3 0
BBX 3 5 0 3
BITMAP
04
00
28
7C
74
ENDCHAR
STARTCHAR eacute.sups
ENCODING -1
SWIDTH 323 0
DWIDTH 3 0
BBX 3 5 0 3
BITMAP
04
00
28
7C
74
ENDCHAR
STARTCHAR a.supa
ENCODING -1
SWIDTH 333 0
DWIDTH 3 0
BBX 3 3 0 3
BITMAP
3C
58
64
ENDCHAR
STARTCHAR g.supa
ENCODING -1
SWIDTH 324 0
DWIDTH 3 0
BBX 4 4 0 2
BITMAP
3D
38
10
B4
ENDCHAR
STARTCHAR l.supa
ENCODING -1
SWIDTH 164 0
DWIDTH 1 0
BBX 2 4 0 4
BITMAP
20
20
50
40
ENDCHAR
STARTCHAR slash.frac
ENCODING -1
SWIDTH 84 0
DWIDTH 1 0
BBX 5 6 -2 0
BITMAP
0040
0100
0400
0400
1000
4000
ENDCHAR
STARTCHAR uni0300.cap
ENCODING -1
SWIDTH 0 0
DWIDTH 0 0
BBX 2 2 0 6
BITMAP
80
10
ENDCHAR
STARTCHAR uni0301.cap
ENCODING -1
SWIDTH 0 0
DWIDTH 0 0
BBX 2 1 1 7
BITMAP
50
ENDCHAR
STARTCHAR uni0302.cap
ENCODING -1
SWIDTH 0 0
DWIDTH 0 0
BBX 3 2 0 6
BITMAP
70
94
ENDCHAR
STARTCHAR uni0303.cap
ENCODING -1
SWIDTH 0 0
DWIDTH 0 0
BBX 4 2 -1 6
BITMAP
36
59
ENDCHAR
STARTCHAR uni0304.cap
ENCODING -1
SWIDTH 0 0
DWIDTH 0 0
BBX 3 1 0 6
BITMAP
F4
ENDCHAR
STARTCHAR uni0306.cap
ENCODING -1
SWIDTH 0 0
DWIDTH 0 0
BBX 3 2 0 6
BITMAP
44
A0
ENDCHAR
STARTCHAR uni0307.cap
ENCODING -1
SWIDTH 0 0
DWIDTH 0 0
BBX 1 1 1 6
BITMAP
80
ENDCHAR
STARTCHAR uni0308.cap
ENCODING -1
SWIDTH 0 0
DWIDTH 0 0
BBX 3 1 0 6
BITMAP
94
ENDCHAR
STARTCHAR uni0309.cap
ENCODING -1
SWIDTH 0 0
DWIDTH 0 0
BBX 2 2 0 6
BITMAP
60
20
ENDCHAR
STARTCHAR uni030A.cap
ENCODING -1
SWIDTH 0 0
DWIDTH 0 0
BBX 2 2 0 6
BITMAP
70
70
ENDCHAR
STARTCHAR uni030B.cap
ENCODING -1
SWIDTH 0 0
DWIDTH 0 0
BBX 3 2 0 6
BITMAP
14
54
ENDCHAR
STARTCHAR uni030C.cap
ENCODING -1
SWIDTH 0 0
DWIDTH 0 0
BBX 3 2 0 6
BITMAP
54
A0
ENDCHAR
STARTCHAR uni030F.cap
ENCODING -1
SWIDTH 0 0
DWIDTH 0 0
BBX 3 2 -1 6
BITMAP
54
14
ENDCHAR
STARTCHAR uni0327.cap
ENCODING -1
SWIDTH 0 0
DWIDTH 0 0
BBX 3 2 -2 -2
BITMAP
10
74
ENDCHAR
STARTCHAR uni0328.cap
ENCODING -1
SWIDTH 0 0
DWIDTH 0 0
BBX 2 2 -1 -2
BITMAP
80
90
ENDCHAR
STARTCHAR uni03080304
ENCODING -1
SWIDTH 0 0
DWIDTH 0 0
BBX 3 2 0 5
BITMAP
B8
94
ENDCHAR
STARTCHAR uni03080304.cap
ENCODING -1
SWIDTH 0 0
DWIDTH 0 0
BBX 3 2 0 6
BITMAP
B8
94
ENDCHAR
STARTCHAR uni03080301
ENCODING -1
SWIDTH 0 0
DWIDTH 0 0
BBX 3 3 0 5
BITMAP
10
10
94
ENDCHAR
STARTCHAR uni03080301.cap
ENCODING -1
SWIDTH 0 0
DWIDTH 0 0
BBX 3 3 0 6
BITMAP
14
10
94
ENDCHAR
STARTCHAR uni0308030C
ENCODING -1
SWIDTH 0 0
DWIDTH 0 0
BBX 3 3 0 5
BITMAP
54
70
94
ENDCHAR
STARTCHAR uni0308030C.cap
ENCODING -1
SWIDTH 0 0
DWIDTH 0 0
BBX 3 3 0 6
BITMAP
54
70
94
ENDCHAR
STARTCHAR uni03080300
ENCODING -1
SWIDTH 0 0
DWIDTH 0 0
BBX 3 2 0 5
BITMAP
10
94
ENDCHAR
STARTCHAR uni03080300.cap
ENCODING -1
SWIDTH 0 0
DWIDTH 0 0
BBX 3 3 0 6
BITMAP
50
10
94
ENDCHAR
STARTCHAR uni03020301
ENCODING -1
SWIDTH 0 0
DWIDTH 0 0
BBX 3 2 0 5
BITMAP
64
54
ENDCHAR
STARTCHAR uni03020301.cap
ENCODING -1
SWIDTH 0 0
DWIDTH 0 0
BBX 3 2 0 6
BITMAP
74
50
ENDCHAR
STARTCHAR uni03020300
ENCODING -1
SWIDTH 0 0
DWIDTH 0 0
BBX 3 2 -1 5
BITMAP
98
14
ENDCHAR
STARTCHAR uni03020300.cap
ENCODING -1
SWIDTH 0 0
DWIDTH 0 0
BBX 3 2 -1 6
BITMAP
6C
14
ENDCHAR
STARTCHAR uni03020309
ENCODING -1
SWIDTH 0 0
DWIDTH 0 0
BBX 3 2 0 5
BITMAP
68
58
ENDCHAR
STARTCHAR uni03020309.cap
ENCODING -1
SWIDTH 0 0
DWIDTH 0 0
BBX 3 2 0 6
BITMAP
78
58
ENDCHAR
STARTCHAR uni03020303
ENCODING -1
SWIDTH 0 0
DWIDTH 0 0
BBX 3 3 0 5
BITMAP
94
F4
50
ENDCHAR
STARTCHAR uni03020303.cap
ENCODING -1
SWIDTH 0 0
DWIDTH 0 0
BBX 3 3 0 6
BITMAP
A4
B4
50
ENDCHAR
STARTCHAR uni03060301
ENCODING -1
SWIDTH 0 0
DWIDTH 0 0
BBX 3 3 0 5
BITMAP
10
54
A0
ENDCHAR
STARTCHAR uni03060301.cap
ENCODING -1
SWIDTH 0 0
DWIDTH 0 0
BBX 3 3 0 6
BITMAP
10
54
A0
ENDCHAR
STARTCHAR uni03060300
ENCODING -1
SWIDTH 0 0
DWIDTH 0 0
BBX 3 3 0 5
BITMAP
40
54
A0
ENDCHAR
STARTCHAR uni03060300.cap
ENCODING -1
SWIDTH 0 0
DWIDTH 0 0
BBX 3 3 0 6
BITMAP
50
54
A0
ENDCHAR
STARTCHAR uni03060309
ENCODING -1
SWIDTH 0 0
DWIDTH 0 0
BBX 3 3 0 5
BITMAP
20
64
A0
ENDCHAR
STARTCHAR uni03060309.cap
ENCODING -1
SWIDTH 0 0
DWIDTH 0 0
BBX 3 3 0 6
BITMAP
20
64
A0
ENDCHAR
STARTCHAR uni03060303
ENCODING -1
SWIDTH 0 0
DWIDTH 0 0
BBX 3 5 0 5
BITMAP
94
64
00
54
A0
ENDCHAR
STARTCHAR uni03060303.cap
ENCODING -1
SWIDTH 0 0
DWIDTH 0 0
BBX 3 5 0 6
BITMAP
A4
64
00
84
B0
ENDCHAR
STARTCHAR uni030C.a
ENCODING -1
SWIDTH 0 0
DWIDTH 0 0
BBX 1 2 0 5
BITMAP
40
40
ENDCHAR
STARTCHAR uni0326.a
ENCODING -1
SWIDTH 0 0
DWIDTH 0 0
BBX 2 2 0 5
BITMAP
70
90
ENDCHAR
STARTCHAR space.frac
ENCODING -1
SWIDTH 132 0
DWIDTH 1 0
BBX 1 1 0 0
BITMAP
00
ENDCHAR
STARTCHAR nbspace.frac
ENCODING -1
SWIDTH 132 0
DWIDTH 1 0
BBX 1 1 0 0
BITMAP
00
ENDCHAR
STARTCHAR uni03020306
ENCODING -1
SWIDTH 0 0
DWIDTH 0 0
BBX 3 4 0 4
BITMAP
44
70
60
50
ENDCHAR
STARTCHAR uni03020306.cap
ENCODING -1
SWIDTH 0 0
DWIDTH 0 0
BBX 3 3 0 6
BITMAP
44
B4
50
ENDCHAR
STARTCHAR zero.0
ENCODING -1
SWIDTH 480 0
DWIDTH 4 0
BBX 4 6 0 0
BITMAP
1E
22
51
9A
96
78
ENDCHAR
STARTCHAR zero.0s
ENCODING -1
SWIDTH 480 0
DWIDTH 4 0
BBX 4 6 0 0
BITMAP
1E
32
56
86
96
78
ENDCHAR
STARTCHAR zero.0p
ENCODING -1
SWIDTH 504 0
DWIDTH 5 0
BBX 5 6 0 0
BITMAP
1E00
2240
5140
8A00
9600
7800
ENDCHAR
STARTCHAR zero.0ps
ENCODING -1
SWIDTH 504 0
DWIDTH 5 0
BBX 5 6 0 0
BITMAP
1E00
3240
5540
8600
9600
7800
ENDCHAR
STARTCHAR uni03040301
ENCODING -1
SWIDTH 0 0
DWIDTH 0 0
BBX 3 3 0 5
BITMAP
10
10
F4
ENDCHAR
STARTCHAR uni03040301.cap
ENCODING -1
SWIDTH 0 0
DWIDTH 0 0
BBX 3 3 0 6
BITMAP
14
10
F4
ENDCHAR
ENDFONT
